<?xml version="1.0" encoding="utf-8"?>
<!-- Generator: Adobe Illustrator 28.0.0, SVG Export Plug-In . SVG Version: 6.00 Build 0)  -->
<svg version="1.1" xmlns="http://www.w3.org/2000/svg" xmlns:xlink="http://www.w3.org/1999/xlink" x="0px" y="0px"
	 viewBox="0 0 39.6 90.72" style="enable-background:new 0 0 39.6 90.72;" xml:space="preserve">
<style type="text/css">
	.st0{display:none;}
	.st1{display:inline;}
</style>
<g id="Uppercase">
	<path class="st0" d="M4.49,59.76c2.12-0.12,3.99-0.19,5.84-0.35c1.22-0.11,2.44-0.36,3.65-0.55c0.11-0.02,0.21-0.07,0.31-0.08
		c2.33-0.07,4.66-0.14,7-0.2c2.24-0.05,4.49-0.1,6.73-0.12c0.29,0,0.59,0.17,0.88,0.25c0.34,0.1,0.7,0.3,1.02,0.25
		c2.57-0.36,5.09,0,7.55,0.67c0.39,0.11,0.86,0.89,0.83,1.34c-0.06,0.95-0.75,1.67-1.73,1.61c-1.67-0.1-3.35-0.26-4.98-0.63
		c-2.77-0.63-5.53-1.08-8.39-0.76c-1.64,0.18-3.32,0.04-4.99,0.09c-1.01,0.03-2.02,0.09-3.02,0.23c-2.64,0.37-5.29,0.73-7.92,1.21
		c-1.46,0.26-2.87,0.74-4.31,1.12c-1.25,0.33-1.77-0.04-1.66-1.35c0.06-0.8,0.23-1.65,0.59-2.35c0.85-1.64,1.72-3.29,2.8-4.78
		c2.79-3.88,5.73-7.66,8.56-11.52c2.99-4.07,5.88-8.21,8.9-12.25c2.15-2.88,4.46-5.63,6.7-8.44c0.27-0.34,0.59-0.65,0.84-1.01
		c0.39-0.57,0.38-0.95-0.45-1.13c-2.42-0.53-4.79-1.28-7.33-0.85c-0.51,0.09-1.06-0.18-1.6-0.16c-2.57,0.08-5.14,0.2-7.71,0.31
		c-0.11,0-0.25,0-0.31,0.07c-1.2,1.3-2.82,1.24-4.4,1.45c-1.02,0.14-2.1-0.13-2.45-1.17c-0.31-0.91,0.31-1.48,1.09-1.92
		c2.07-1.15,4.38-1.1,6.62-1.31c1.96-0.19,3.95,0.02,5.93-0.02c1.05-0.02,2.1-0.38,3.13-0.32c3.2,0.18,6.41,0.44,9.6,0.75
		c1.42,0.14,1.9,0.9,1.46,2.25c-0.3,0.91-0.7,1.85-1.29,2.6c-3.04,3.89-6.17,7.72-9.25,11.58c-1.56,1.96-3.15,3.9-4.62,5.93
		c-4.3,5.94-8.56,11.92-12.81,17.9C4.98,58.53,4.82,59.06,4.49,59.76z"/>
	<path class="st0" d="M25.51,32.2c-2.45,2.36-4.88,4.74-7.34,7.09c-1.6,1.53-3.69,2.02-5.74,2.58c-0.31,0.08-0.82,0.04-1.01-0.16
		c-1.42-1.49-2.95-2.77-3.59-4.98C6,30.36,7.52,24.36,9.33,18.35c0.44-1.46,0.89-2.92,1.44-4.35c0.22-0.57,0.69-1.09,1.14-1.52
		c0.15-0.15,0.73-0.08,0.92,0.1c0.16,0.16,0.14,0.65,0.02,0.92c-0.64,1.46-1.62,2.84-1.96,4.36c-0.87,3.9-1.91,7.76-1.91,11.84
		c0,2.94,0.97,5.4,2.56,7.73c0.38,0.55,2.57,0.66,3.57,0.16c6.51-3.27,11.13-8.21,13.32-15.24c0.84-2.7,1.5-5.45,2.34-8.15
		c0.29-0.94,0.77-1.87,1.35-2.66c0.75-1.02,1.55-0.84,1.8,0.42c0.16,0.83,0.07,1.76-0.11,2.6c-0.76,3.52-2.03,6.84-3.61,10.11
		c-1.4,2.89-2.25,6.05-3.2,9.14c-1.36,4.44-2.66,8.89-3.84,13.38c-1.33,5.07-2.53,10.17-3.74,15.26c-0.24,1.03-0.24,2.11-0.37,3.16
		c-0.06,0.47-0.08,0.95-0.23,1.39c-0.33,0.95-0.69,2.19-1.94,1.87c-1.14-0.29-0.66-1.47-0.47-2.26c1.69-6.8,3.39-13.6,5.15-20.39
		c0.89-3.41,1.88-6.8,2.87-10.19c0.36-1.23,0.83-2.43,1.25-3.64C25.62,32.33,25.57,32.26,25.51,32.2z"/>
	<path class="st0" d="M0.3,63.23c0.45-1.47,0.62-2.76,1.21-3.83C4.91,53.23,8,46.87,12.41,41.3c1.43-1.8,2.6-3.81,3.83-5.76
		c0.21-0.34,0.27-1.01,0.07-1.32c-0.94-1.46-1.99-2.85-3.01-4.25c-0.29-0.4-0.79-0.7-0.94-1.14c-1.22-3.53-4.14-5.86-6.16-8.81
		c-1.26-1.84-3.11-3.29-3.66-5.57C2.42,14,2.64,13.47,2.7,12.98c0.45,0.07,1.09-0.02,1.31,0.24c1.5,1.72,2.92,3.52,4.34,5.3
		c2.13,2.66,4.26,5.33,6.38,8.01c0.31,0.39,0.56,0.81,0.84,1.23c0.88,1.33,1.72,2.68,2.66,3.96c0.1,0.14,0.92,0.01,1.13-0.23
		c0.79-0.89,1.41-1.92,2.18-2.81c3.18-3.68,6.39-7.33,9.61-10.98c0.9-1.02,1.82-2.05,2.85-2.93c0.93-0.8,1.52-0.56,1.92,0.61
		c0.41,1.21,0.11,2.42-0.91,2.99c-3.26,1.82-5.44,4.77-7.92,7.37c-2.14,2.25-3.96,4.81-5.97,7.18c-0.75,0.88-1.11,1.39,0.05,2.37
		c1.08,0.92,1.72,2.36,2.57,3.56c1.35,1.92,2.48,4.07,4.14,5.68c2.12,2.05,3.72,4.36,5.32,6.8c1.05,1.61,2.89,2.76,4.49,3.95
		c1.58,1.18,2.16,2.81,1.04,4.35c-0.49,0.67-1.46,1.32-2.23,1.34c-0.63,0.02-1.38-0.83-1.92-1.43c-0.85-0.96-1.59-2.02-2.34-3.06
		c-0.92-1.29-1.8-2.61-2.7-3.92c-0.34-0.5-0.72-0.97-1.04-1.48c-0.8-1.29-1.47-2.67-2.37-3.89c-0.87-1.18-2.04-2.14-2.93-3.31
		c-1.47-1.95-2.86-3.97-4.2-6.02c-0.62-0.94-0.95-1.15-1.67-0.05c-3.49,5.32-7.28,10.45-9.99,16.24c-1.37,2.94-2.63,5.93-4.07,8.84
		c-0.3,0.6-1.11,1.06-1.78,1.32C1.25,64.3,0.71,63.59,0.3,63.23z"/>
	<path class="st0" d="M19.05,38.62c-0.51,1.37-1.01,2.76-1.55,4.12c-1.46,3.7-2.77,7.48-4.48,11.06c-1.06,2.21-2.74,4.12-4.18,6.14
		C8.09,61,7.45,62.13,6.01,62.54c-1.77,0.5-2.79,0-3.65-1.63c-1.02-1.93-1.99-3.88-1.9-6.05c0.13-3.36,0.43-6.72,0.85-10.06
		c0.42-3.33,1.05-6.64,1.62-9.95c0.48-2.77,1.01-5.53,1.54-8.3c0.46-2.37,0.94-4.74,1.42-7.11c0.01-0.05,0-0.12,0.02-0.16
		c0.29-0.66,0.29-1.82,1.3-1.59c1.1,0.25,0.7,1.25,0.51,2.08c-0.46,2.04-0.84,4.1-1.25,6.15c-0.66,3.29-1.37,6.57-1.95,9.88
		c-0.5,2.83-0.88,5.68-1.24,8.53c-0.24,1.91-0.36,3.84-0.51,5.77c-0.19,2.48,0.3,4.85,1.31,7.1c0.3,0.67,0.94,1.22,1.53,1.69
		c0.17,0.14,0.86-0.06,1.07-0.31c1.24-1.54,2.69-3.01,3.55-4.75c2.11-4.25,4.02-8.61,5.86-12.99c1.05-2.49,1.76-5.12,2.71-7.66
		c0.46-1.24,1.08-2.43,1.73-3.57c0.2-0.35,0.77-0.5,1.17-0.74c0.23,0.39,0.64,0.78,0.65,1.18c0.06,1.77,0.19,3.56-0.04,5.3
		c-0.68,5.09-0.3,10.18,0.19,15.23c0.3,3.09,1.67,5.94,3.6,8.41c1.05,1.34,2.86,1.81,4.38,0.07c1.67-1.92,3.39-3.75,4.2-6.29
		c1.13-3.51,1.88-7.08,1.75-10.75c-0.17-4.69-0.48-9.38-0.91-14.05c-0.24-2.52-0.89-5-1.33-7.51c-0.29-1.63-0.2-3.22,0.85-4.6
		c0.7-0.92,1.2-0.85,1.64,0.23c0.21,0.5,0.28,1.07,0.33,1.61c0.16,1.59,0.25,3.19,0.41,4.79c0.55,5.21,1.34,10.42,1.64,15.64
		c0.29,5.16-0.21,10.34-1.97,15.23c-0.83,2.3-2.39,4.34-3.59,6.52c-0.87,1.59-2.09,2.68-3.66,3.67c-1.41,0.89-2.71,0.84-3.87,0.33
		c-1.46-0.64-2.9-1.54-3.46-3.34c-0.46-1.5-1.42-2.86-1.79-4.38c-0.84-3.43-1.51-6.9-1.31-10.49c0.13-2.3,0.02-4.61,0.02-6.92
		C19.32,38.68,19.18,38.65,19.05,38.62z"/>
	<path class="st0" d="M35.31,12.97c-0.31,1.48-0.55,3.13-1.01,4.72c-2.55,8.81-5.08,17.63-7.75,26.4
		c-1.71,5.61-3.63,11.15-5.53,16.69c-0.32,0.93-0.93,1.76-1.48,2.6c-0.55,0.83-1.36,1.03-2.35,0.85c-1.1-0.2-1.18-1.09-1.35-1.87
		c-1.11-5.31-2.3-10.6-3.22-15.94c-1.14-6.61-2.85-13.07-4.73-19.49c-0.84-2.87-1.76-5.71-2.64-8.57c-0.35-1.16-0.87-2.31-0.96-3.49
		c-0.06-0.74,0.36-2.01,0.88-2.2c1-0.37,1.5,0.7,1.77,1.55c1.17,3.66,2.38,7.32,3.43,11.01c1.12,3.93,2.16,7.89,3.11,11.87
		c1.33,5.58,2.55,11.18,3.82,16.78c0.23,1.03,0.42,2.08,0.69,3.1c0.11,0.43,0.37,0.83,0.57,1.24c0.32-0.37,0.77-0.69,0.92-1.12
		c1.53-4.35,3.09-8.7,4.5-13.1c1.62-5.08,3.24-10.16,4.59-15.31c1.24-4.75,2.07-9.61,3.17-14.4c0.23-1.01,0.78-1.97,1.34-2.86
		c0.24-0.38,1.03-0.82,1.26-0.69c0.43,0.24,0.66,0.87,0.92,1.37C35.35,12.3,35.29,12.58,35.31,12.97z"/>
	<path class="st0" d="M28.66,49.15c-2.19,4.63-4.69,8.68-8.65,11.76c-1.74,1.35-3.41,2.59-5.57,3.14c-1.8,0.46-3.05,0.03-4.35-1.38
		c-2.88-3.11-3.76-6.83-3.96-10.87c-0.23-4.66-0.83-9.33-0.68-13.98c0.16-4.84,0.96-9.67,1.59-14.49c0.4-3.04,0.98-6.05,1.53-9.07
		c0.12-0.68,0.4-1.36,0.77-1.95c0.16-0.26,0.72-0.39,1.08-0.37c0.13,0.01,0.4,0.63,0.34,0.92c-0.56,2.75-1.31,5.47-1.75,8.23
		c-0.49,3.14-0.78,6.32-1.04,9.48c-0.24,2.87-0.52,5.75-0.47,8.61c0.09,5.42-0.05,10.91,2.35,16c1.02,2.15,2.14,4.25,4.99,4.24
		c0.69,0,1.52,0.05,2.04-0.3c3.63-2.44,6.96-5,8.6-9.48c2.38-6.46,3.72-13.05,4.22-19.87c0.33-4.47,0.67-8.95,1.19-13.4
		c0.17-1.48,0.78-2.96,1.43-4.32c0.25-0.53,1.19-0.72,1.81-1.07c0.29,0.6,0.82,1.21,0.81,1.8c-0.02,1.66-0.15,3.34-0.45,4.97
		c-1.75,9.67-3.1,19.38-3.21,29.22c-0.04,3.21-0.14,6.42-0.02,9.62c0.07,1.84,0.48,3.67,0.84,5.48c0.28,1.43-0.14,2.56-1.25,3.39
		c-0.75,0.57-1.57,0.49-1.75-0.56c-0.25-1.49-0.4-3.02-0.42-4.53C28.62,56.71,28.66,53.03,28.66,49.15z"/>
	<path class="st0" d="M18.35,19.19c-2.82,1.58-5.46,3.04-8.09,4.54c-1.37,0.78-2.78,1.53-4.03,2.48c-0.7,0.53-1.25,1.38-1.61,2.19
		c-0.34,0.78-0.74,1.09-1.52,0.86c-0.8-0.24-0.88-0.76-0.73-1.58c0.36-1.95,2.02-2.69,3.3-3.74c3.4-2.81,7.48-4.44,11.43-6.27
		c3.45-1.6,6.88-3.24,10.35-4.78c0.79-0.35,1.73-0.36,2.6-0.55c0.65-0.14,1.33-0.23,1.91-0.52c1.53-0.77,3.02-1.32,4.82-1.06
		c0.84,0.12,1.9-0.79,1.9,0.94c-0.01,1.58-1.04,2.68-2.42,2.82c-1.22,0.13-2.42,0.52-3.63,0.8c-0.23,0.05-0.59,0.21-0.68,0.12
		c-1.16-1.18-1.86,0.11-2.79,0.42c-1.66,0.57-3.39,0.95-5.09,1.42c-3.74,1.05-3.95,1.32-4.35,5.13c-0.47,4.51-1.04,9.02-1.41,13.54
		c-0.35,4.26-0.51,8.54-0.75,12.81c-0.24,4.09-0.48,8.17-0.72,12.26c-0.01,0.18-0.01,0.37-0.04,0.55c-0.29,1.4-1.46,2.87-2.2,2.58
		c-1.49-0.57-0.92-1.94-0.82-3c0.71-7.11,1.44-14.21,2.24-21.31c0.65-5.74,1.41-11.47,2.1-17.21
		C18.24,21.61,18.26,20.58,18.35,19.19z"/>
	<path class="st0" d="M22.78,13.86c-3.29-0.08-6.13,0.82-8.85,2.38c-2.73,1.56-5.54,2.97-7.7,5.36c-1.56,1.72-1.17,4.58,0.76,5.88
		c1.09,0.73,2.02,1.7,3.15,2.35c1.18,0.69,2.5,1.16,3.78,1.66c1.98,0.78,3.97,1.51,5.97,2.25c2.3,0.84,4.66,1.54,6.89,2.53
		c1.81,0.81,3.48,1.87,4.84,3.45c0.89,1.04,2.35,1.56,3.39,2.49c1.68,1.51,2.26,3.44,2,5.73c-0.66,5.64-3.55,9.65-8.21,12.84
		c-4.02,2.75-8.37,3.83-12.94,3.3c-3.55-0.41-6.85-1.79-9.22-5.1c-2.29-3.2-2.58-6.62-2.58-10.23c0-0.31,0.43-0.61,0.66-0.92
		c0.2,0.27,0.53,0.51,0.59,0.8c0.5,2.64,1.51,5.1,2.96,7.31c1.35,2.05,3.33,3.45,5.82,3.88c2,0.34,4.01,0.72,6.02,0.79
		c1.51,0.05,3.21-0.01,4.53-0.63c3.22-1.5,6.44-3.07,8.48-6.28c1.78-2.81,1.61-7.63-1.29-10.22c-2.32-2.06-4.9-3.38-7.67-4.52
		c-0.33-0.14-0.82-0.19-0.97-0.45c-0.92-1.55-2.64-1.41-4.01-1.93c-3-1.14-6.13-1.96-9.05-3.26c-2.32-1.03-4.46-2.49-6.41-4.21
		c-1.43-1.25-1.57-5.61-0.25-7.48c1.63-2.3,3.95-3.73,6.08-5.41c2.18-1.72,4.66-2.84,7.2-3.89c2.12-0.87,4.32-1.38,6.55-1.47
		c1.19-0.04,2.38,0.87,3.62,1.07c2.9,0.45,4.13,2.55,5.23,4.87c0.34,0.71,0.8,1.36,1.16,2.06c1,1.94,0.29,4.52-1.42,5.19
		c-0.21,0.08-0.45,0.08-0.67,0.12c-0.02-0.28-0.16-0.62-0.05-0.82c1.02-1.72,0.18-3.12-0.79-4.43c-1.07-1.45-2.18-2.9-3.48-4.12
		c-0.63-0.6-1.72-0.77-2.64-0.99C23.75,13.68,23.18,13.84,22.78,13.86z"/>
	<path class="st0" d="M11.52,43.7c-0.26,2.71-0.48,5.03-0.69,7.35c-0.3,3.37-0.55,6.75-0.9,10.11c-0.08,0.75-0.37,1.56-0.8,2.16
		c-0.28,0.39-1.01,0.47-1.54,0.69c-0.19-0.47-0.58-0.96-0.55-1.41c0.11-1.5,0.38-2.99,0.58-4.48c0.66-4.84,1.35-9.69,1.93-14.54
		c0.06-0.48-0.47-1.44-0.84-1.5c-1.18-0.2-2.13-0.76-2.11-1.86c0.01-1.13,0.61-2.25,0.97-3.36c0.05-0.15,0.23-0.32,0.38-0.37
		c3.33-1.1,2.65-3.99,2.89-6.46c0.1-1.02,0.08-2.08,0.4-3.03c0.18-0.55,0.94-0.9,1.44-1.34c0.25,0.55,0.73,1.12,0.7,1.66
		c-0.11,2.05-0.33,4.1-0.63,6.13c-0.16,1.08,0.24,1.35,1.15,1.1c1.56-0.42,3.22-0.69,4.64-1.4c3.1-1.57,6.23-3.16,9.06-5.16
		c1.77-1.25,3.11-3.17,4.47-4.92c1.65-2.13,1.3-5.22-2.09-6.48c-1.04-0.39-2.01-0.98-2.99-1.52c-1.33-0.72-2.81-0.6-4.22-0.72
		c-3.02-0.27-6.14-0.66-9.02,0.5c-1.91,0.77-3.57,2.14-5.36,3.21c-2.09,1.26-3.21,3.25-3.99,5.42c-0.77,2.15,0.03,3.81,2.04,4.91
		c0.31,0.17,0.5,0.56,0.74,0.85c-0.36,0.24-0.73,0.7-1.08,0.68c-2.94-0.13-4.4-0.68-4.25-4.12c0.15-3.39,1.61-6.25,4.23-8.52
		c1.62-1.41,2.87-3.19,4.85-4.24c3.66-1.94,7.54-2.4,11.55-2.03c2.19,0.2,4.36,0.64,6.5,1.14c5.59,1.3,8.46,5.69,5.56,11.18
		c-2.81,5.33-7.38,8.84-12.76,11.32c-2.4,1.1-4.92,1.93-7.36,2.94c-0.7,0.29-1.36,0.74-1.93,1.25c-0.19,0.17-0.2,0.85-0.02,1.09
		c0.46,0.61,1.04,1.15,1.64,1.64c1.82,1.48,3.75,2.83,5.48,4.41c1.99,1.82,4.14,3.6,5.62,5.8c1.8,2.67,4.08,4.87,6.2,7.2
		c1.65,1.82,3.42,3.61,5.76,4.66c0.83,0.37,0.82,1.26-0.13,1.57c-1.14,0.37-2.46,0.59-3.62,0.41c-2.45-0.39-3.73-2.38-5.15-4.2
		c-1.65-2.12-2.4-4.94-4.95-6.36c-0.19-0.11-0.31-0.36-0.44-0.56c-1.75-2.63-4.21-4.55-6.52-6.62c-0.73-0.65-1.51-1.24-2.25-1.87
		C13.35,45.36,12.61,44.68,11.52,43.7z"/>
	<path class="st0" d="M2.94,39.96c0.22-2.38,0.25-4.91,0.72-7.36c1.27-6.63,3.89-12.61,8.91-17.36c1.58-1.49,3.04-2.9,5.52-2.6
		c0.84,0.1,1.75-0.87,2.68-1.05c3.74-0.69,6.84,0.11,9.12,3.56c2.44,3.71,4.58,7.56,5.75,11.81c1.83,6.65,1.06,13.26-1.15,19.74
		c-1.32,3.87-3.26,7.4-5.82,10.6c-0.27,0.34-0.33,1.19-0.09,1.55c1.59,2.45,3.28,4.84,4.96,7.22c0.67,0.95,1.18,1.94,0.55,3.06
		c-0.27,0.49-0.79,1.11-1.25,1.16c-0.48,0.05-1.26-0.39-1.49-0.83c-1.49-2.9-3.87-5.33-4.64-8.62c-0.22-0.94-0.79-0.99-1.44-0.3
		c-2.29,2.42-5.21,3.58-8.42,3.19c-2.31-0.28-4.71-0.88-6.12-3.3C10,59.14,8.76,58.17,7.82,57c-2.64-3.27-4.07-7.02-4.34-11.22
		C3.35,43.88,3.13,42,2.94,39.96z M11.51,18.53c-0.06-0.03-0.12-0.06-0.17-0.09c-0.8,1.23-1.67,2.42-2.39,3.69
		c-2.84,5-4.19,10.45-4.22,16.16c-0.01,3.33,0.06,6.67,0.99,9.99c0.98,3.5,2.91,6.35,5.28,8.86c1.35,1.44,3.28,2.58,5.16,3.22
		c2.7,0.92,5.23-0.25,7.58-1.69c0.8-0.49,1.18-0.94,0.68-1.91c-0.89-1.72-1.69-3.48-2.5-5.23c-0.71-1.53-1.45-3.05-2.03-4.62
		c-0.31-0.84-0.12-1.82,0.86-2.15c1.04-0.35,1.26,0.56,1.61,1.31c1.34,2.87,2.76,5.7,4.11,8.56c0.6,1.28,1.04,0.96,1.73,0.04
		c2.28-3.03,3.9-6.37,4.99-9.99c1.73-5.76,1.71-11.5-0.06-17.23c-1.3-4.22-2.56-8.51-6.72-10.96c-1.19-0.7-2.45-1.58-3.75-1.71
		c-1.29-0.14-2.99-0.24-3.79,1.45c-0.04,0.09-0.42,0.01-0.64,0.03c-0.5,0.04-1.11-0.07-1.47,0.18c-1.04,0.73-2.07,1.52-2.93,2.44
		c-0.79,0.84-1.34,1.91-2.04,2.84c-0.15,0.2-0.48,0.26-0.73,0.38c-0.09-0.27-0.3-0.56-0.25-0.8C10.99,20.36,11.27,19.45,11.51,18.53
		z"/>
	<path class="st0" d="M8.87,59.02c0-4.36-0.01-8.72,0-13.08c0.01-1.83-0.45-3.39-1.87-4.7c-1.32-1.22-0.9-3.73,0.59-4.88
		c0.28-0.21,0.5-0.66,0.51-1.01c0.02-0.79-0.11-1.58-0.17-2.36c-0.25-2.82-0.67-5.65-0.67-8.47c0-1.57,0.63-3.17,1.16-4.69
		c0.14-0.41,0.95-0.59,1.46-0.87c0.19,0.43,0.44,0.84,0.56,1.29c0.11,0.4,0.14,0.85,0.1,1.27c-0.26,3.12-0.65,6.23-0.78,9.36
		c-0.1,2.36,0.08,4.74,0.25,7.1c0.03,0.36,0.62,0.93,1,0.97c2.71,0.29,5.6,0.7,7.97-0.82c1.57-1.01,3.49-1.24,4.86-2.86
		c1.04-1.23,3.1-1.55,4.6-2.45c1.86-1.12,3.63-2.4,5.42-3.64c2.2-1.52,3.26-6.23,2.02-8.7c-0.63-1.25-2.04-2.21-3.28-3.02
		c-1.69-1.1-3.5-2.06-5.36-2.84c-0.92-0.38-2.08-0.21-3.13-0.29c-0.81-0.06-1.63-0.08-2.43-0.2c-2.32-0.34-4.65-0.46-6.89,0.32
		c-1.71,0.6-3.47,1.24-4.99,2.19c-1.77,1.11-3.38,2.51-4.94,3.92c-1.26,1.13-1.33,2.68-0.94,4.24c0.28,1.11,0.74,2.18,0.93,3.31
		c0.09,0.49-0.28,1.07-0.45,1.61c-0.41-0.25-1-0.4-1.2-0.77c-0.72-1.33-1.45-2.68-1.89-4.11c-0.25-0.81-0.22-1.93,0.16-2.65
		c1.01-1.91,2.07-3.89,3.52-5.46c2.16-2.34,4.63-4.42,7.95-5.06c2.67-0.52,5.29-1.31,8.07-0.6c0.86,0.22,1.86-0.1,2.72,0.12
		c2.65,0.7,5.28,1.47,7.87,2.35c2.97,1.01,5.38,2.89,6.39,5.89c1,2.99,0.25,5.89-1.19,8.76c-2.05,4.07-5.48,6.4-9.25,8.53
		c-4.06,2.3-8.55,3.33-12.93,4.71c-1.26,0.4-2.62,0.52-3.81,1.04c-0.49,0.21-0.98,1.14-0.95,1.72c0.14,2.59,0.48,5.17,0.71,7.76
		c0.26,2.97,0.56,5.93,0.65,8.91c0.03,0.89-0.54,1.84-0.98,2.69c-0.18,0.34-0.76,0.47-1.16,0.7c-0.22-0.39-0.61-0.77-0.64-1.18
		c-0.08-1.33-0.03-2.68-0.03-4.02C8.56,59.02,8.72,59.02,8.87,59.02z"/>
	<path class="st0" d="M36.06,32.36c0.33,9.56-1.22,17.58-5.7,24.81c-0.99,1.59-2.72,2.74-4.19,4.02c-3.38,2.93-7.44,3.34-11.67,3.01
		c-0.25-0.02-0.5-0.04-0.73-0.12c-0.87-0.27-4.48-4.1-4.8-5.01c-0.18-0.51-0.31-1.12-0.67-1.48c-3.08-3.12-3.39-7.12-3.4-11.11
		c-0.03-10.08,2.32-19.6,7.21-28.45c0.71-1.28,1.37-2.64,2.31-3.74c1.39-1.62,2.89-3.11,5.38-3.01c1.89,0.07,3.8-0.37,5.7-0.34
		c3.8,0.06,8.88,5.21,8.73,8.94c-0.01,0.25-0.05,0.54,0.06,0.73C36.51,24.68,35.54,29.2,36.06,32.36z M20.53,17.58
		c-0.46-0.51-0.77-0.72-0.89-1.02c-0.49-1.16-1.08-1-2.18-0.62c-2.7,0.94-3.75,3.32-4.69,5.46c-3.45,7.84-6.1,15.95-5.18,24.71
		c0.28,2.65,0.63,5.43,1.68,7.83c1.17,2.68,2.43,5.74,6.1,6.16c0.28,0.03,0.51,0.4,0.79,0.46c1.07,0.2,2.19,0.6,3.22,0.45
		c4.75-0.67,8.1-2.99,10.16-7.65c2.47-5.58,3.64-11.33,3.67-17.31c0.03-4.54-0.25-9.12-0.87-13.62c-0.32-2.35-1.32-4.91-3.71-6.05
		c-2.02-0.96-4.27-1.55-6.48-1.95c-1.81-0.33-2.16,0.14-1.64,1.74C20.62,16.51,20.53,16.88,20.53,17.58z"/>
	<path class="st0" d="M9.19,42.71c0,5.13,0.06,10.25-0.05,15.38c-0.03,1.24-0.58,2.48-1.01,3.67c-0.11,0.3-0.7,0.42-1.08,0.63
		c-0.17-0.33-0.46-0.66-0.48-1c-0.15-1.8-0.3-3.6-0.33-5.4c-0.03-2.13,0.01-4.27,0.11-6.41c0.1-2.14,0.35-4.26,0.46-6.4
		c0.19-3.82,0.29-7.65,0.5-11.47c0.18-3.15,0.24-6.34,0.82-9.42c0.28-1.46,1.52-2.82,2.55-4.04c0.65-0.77,1.4-0.01,1.77,0.6
		c0.94,1.53,1.86,3.08,2.62,4.7c1.01,2.18,1.91,4.42,2.76,6.66c1.4,3.66,2.62,7.4,4.12,11.01c1.36,3.29,2.5,6.69,4.77,9.57
		c1.63,2.07,2.9,4.42,4.37,6.61c0.21,0.31,0.67,0.45,1.01,0.66c0.14-0.39,0.41-0.78,0.39-1.15c-0.33-5.66-0.73-11.32-1.07-16.98
		c-0.21-3.54-0.58-7.08-0.45-10.61c0.18-5.28,0.11-10.61,1.61-15.76c0.2-0.68,0.63-1.31,1.04-1.89c0.19-0.27,0.61-0.37,0.92-0.55
		c0.07,0.36,0.24,0.74,0.19,1.08c-0.38,2.45-1,4.88-1.17,7.35c-0.35,4.88-0.76,9.79-0.59,14.67c0.24,6.86,1,13.71,1.52,20.56
		c0.15,1.95,0.34,3.91,0.26,5.85c-0.04,0.89-0.59,1.82-1.09,2.62c-0.5,0.8-1.26,1.01-1.89,0.06c-0.99-1.49-2.34-2.72-3.35-4.12
		c-1.48-2.07-2.37-4.56-3.44-6.91c-1.04-2.29-1.98-4.62-2.97-6.93c-1.56-3.64-3.02-7.33-4.71-10.91c-1.23-2.58-2.78-5.01-4.16-7.52
		c-0.43-0.78-0.72-1.66-1.22-2.39c-0.3-0.43-0.91-0.65-1.39-0.97c-0.23,0.47-0.62,0.92-0.66,1.41c-0.21,2.87-0.41,5.74-0.49,8.62
		c-0.08,3.04-0.02,6.09-0.02,9.13C9.31,42.71,9.25,42.71,9.19,42.71z"/>
	<path class="st0" d="M20.47,45.71c1.19-3.39,2.38-6.78,3.58-10.17c1.13-3.18,2.17-6.41,3.45-9.53c1.73-4.21,3.57-8.37,5.54-12.47
		c0.49-1.01,1.55-1.89,2.56-2.48c1.1-0.63,1.83,0.08,1.84,1.35c0.02,1.71,0.23,3.41,0.24,5.12c0.02,6.39,0.03,12.78-0.02,19.16
		c-0.04,5.89-0.21,11.79-0.2,17.68c0.01,1.94,0.29,3.9,0.7,5.79c0.27,1.27-0.18,2.18-0.83,3.08c-0.19,0.26-0.68,0.52-0.95,0.45
		c-0.26-0.06-0.54-0.54-0.58-0.86c-0.18-1.38-0.4-2.77-0.39-4.16c0.02-5.5,0.12-11,0.19-16.51c0.07-5.27,0.21-10.54,0.19-15.81
		c-0.02-3.09-0.28-6.19-0.48-9.28c-0.02-0.38-0.3-0.75-0.46-1.12c-0.37,0.26-0.93,0.44-1.08,0.79c-0.99,2.22-1.94,4.47-2.8,6.75
		c-1.3,3.42-2.53,6.87-3.75,10.32c-1.09,3.09-2.09,6.21-3.2,9.29c-0.84,2.35-1.7,4.69-2.72,6.97c-0.43,0.97-1.19,1.86-1.98,2.59
		c-0.74,0.69-1.54,0.33-1.8-0.6c-0.47-1.69-1.23-3.27-1.03-5.17c0.19-1.73-0.2-3.53-0.34-5.3c-0.38-4.69-0.66-9.39-1.93-13.95
		c-0.63-2.25-1.23-4.51-2.05-6.69c-0.4-1.06-1.2-1.99-1.92-2.9c-0.66-0.82-1.6-0.58-1.94,0.18c-0.91,2-1.61,4.1-2.38,6.16
		c-0.04,0.1-0.04,0.25,0.01,0.33c1.63,2.41,0.43,4.98,0.08,7.33c-0.78,5.21-1.27,10.41-1.35,15.66c-0.02,1.1-0.41,2.21-0.39,3.31
		c0.02,1.25,0.33,2.49,0.5,3.73c0.05,0.38,0.11,0.77,0.09,1.16c-0.09,1.77-0.09,3.56-0.35,5.31c-0.13,0.88-0.63,1.79-1.2,2.49
		c-0.64,0.79-1.63,0.5-1.65-0.51c-0.05-3.17-0.89-6.38,0.38-9.5c0.08-0.19,0.07-0.43,0.07-0.65c0.02-2.56-0.04-5.12,0.07-7.68
		c0.13-2.94,0.41-5.88,0.62-8.82c0.03-0.38,0.17-0.82,0.04-1.15c-0.62-1.65-0.39-3.29,0.01-4.9c1.18-4.85,1.89-9.86,4.57-14.22
		c0.55-0.89,1.2-1.75,1.94-2.49c0.28-0.28,1.07-0.39,1.43-0.2c1.36,0.72,2.23,1.91,2.82,3.36c1.47,3.57,1.83,7.45,3.06,11.05
		c1.74,5.08,1.56,10.43,2.79,15.56c0.17,0.7,0.37,1.39,0.55,2.08C20.17,45.67,20.32,45.69,20.47,45.71z"/>
	<path class="st0" d="M10.56,58.17c0.9-7.2,1.79-14.41,2.7-21.61c0.81-6.39,1.64-12.78,2.48-19.17c0.24-1.87,0.51-3.73,0.85-5.58
		c0.08-0.44,0.48-0.83,0.74-1.24c0.24,0.45,0.71,0.92,0.69,1.36c-0.11,2.16-0.31,4.32-0.56,6.48c-0.35,3.01-0.77,6-1.14,9.01
		c-0.75,5.94-1.63,11.86-2.19,17.82c-0.4,4.26-0.4,8.57-0.51,12.85c-0.04,1.68,0.64,2.01,2.24,1.39c0.73-0.28,1.58-0.23,2.32-0.5
		c2.75-1,5.49-2.07,8.22-3.13c0.89-0.35,1.73-0.81,2.63-1.13c1.25-0.44,2.06,0.29,1.68,1.56c-0.19,0.63-0.53,1.39-1.05,1.72
		c-1.34,0.85-2.8,1.49-4.23,2.2c-0.2,0.1-0.46,0.06-0.67,0.14c-2.34,0.82-4.66,1.68-7,2.48c-1.39,0.48-2.8,0.92-4.23,1.28
		c-1.26,0.32-2.32-0.37-2.48-1.63c-0.17-1.41-0.19-2.84-0.28-4.27C10.69,58.2,10.63,58.19,10.56,58.17z"/>
	<path class="st0" d="M15.55,37.48c1.12,1.21,2.32,2.11,2.98,3.31c1.26,2.26,3.14,3.87,4.95,5.59c0.16,0.15,0.42,0.23,0.51,0.4
		c1.68,3.27,4.88,5.35,6.69,8.52c0.56,0.97,0.42,2.25-0.48,2.87c-0.25,0.17-0.76,0.22-1.01,0.08c-0.46-0.26-0.94-0.64-1.21-1.09
		c-0.93-1.58-1.76-3.22-2.63-4.84c-0.15-0.28-0.22-0.7-0.45-0.84c-3.1-1.84-4.8-5.07-7.42-7.38c-0.86-0.75-1.89-1.31-2.78-2.03
		c-1.32-1.07-2.58-2.2-4.08-3.5c-0.26,1.3-0.62,2.6-0.78,3.92c-0.39,3.09-0.77,6.19-1.01,9.3c-0.18,2.33-0.21,4.68-0.16,7.02
		c0.03,1.58-0.04,3.09-0.99,4.39c-0.34,0.46-0.97,0.7-1.47,1.04c-0.22-0.5-0.65-1.02-0.62-1.51c0.15-2.51,0.37-5.02,0.67-7.52
		c0.4-3.37,0.85-6.73,1.37-10.08c0.64-4.08,1.39-8.14,2.06-12.21c0.61-3.66,1.14-7.34,1.78-10.99c0.6-3.39,1.29-6.76,2-10.12
		c0.08-0.38,0.54-0.67,0.83-1.01c0.18,0.44,0.57,0.92,0.5,1.33c-0.58,3.4-1.3,6.77-1.86,10.17c-0.59,3.55-1.09,7.12-1.52,10.69
		c-0.07,0.6-1.01,1.28,0.12,1.99c1.91,1.2,1.86,1.27,3.39-0.41c3.47-3.8,7.3-7.21,11.5-10.2c1.15-0.82,2.11-1.89,3.22-2.77
		c1.55-1.22,3.13-2.4,4.75-3.52c0.7-0.49,1.42,0.01,1.34,0.93c-0.12,1.39-0.89,2.42-2.02,3.21c-2.56,1.77-5.22,3.4-7.64,5.35
		c-2.84,2.29-5.49,4.82-8.18,7.29C17.04,35.65,16.31,36.62,15.55,37.48z"/>
	<path class="st0" d="M13.27,47.8c0,1.52-0.09,3.04,0.03,4.55c0.13,1.66,0.14,3.43,0.79,4.9c0.53,1.2,1.75,2.55,2.95,2.94
		c4.82,1.53,8.66,0.41,9.98-5.68c1.56-7.18,1.2-14.45,0.91-21.71c-0.2-5.12-0.59-10.22-0.92-15.33c-0.08-1.26-0.28-2.52-0.39-3.78
		c-0.04-0.51-0.12-1.1,0.07-1.54c0.21-0.51,0.71-0.9,1.08-1.34c0.3,0.48,0.83,0.95,0.87,1.45c0.41,6.15,0.85,12.29,1.08,18.45
		c0.2,5.5,0.29,11.02,0.15,16.52c-0.1,3.78-0.38,7.58-1.97,11.17c-1.77,4-6.01,6.31-10.29,5.74c-1.58-0.21-3.2-1.44-4.44-2.59
		c-1.25-1.15-1.9-2.84-1.72-4.67c0.24-2.52,0.46-5.04,0.76-7.55c0.07-0.56,0.39-1.09,0.6-1.63C12.96,47.73,13.11,47.76,13.27,47.8z"
		/>
	<path class="st0" d="M15.56,14.27c1.24-0.2,2.61-0.39,3.96-0.65c2.44-0.48,4.86-1.02,7.29-1.53c1.68-0.35,3.35-0.73,5.04-1.02
		c0.7-0.12,1.66-0.68,1.94,0.56c0.23,1.01,0.01,2.01-1.04,2.43c-0.88,0.35-1.85,0.47-2.79,0.64c-2.04,0.35-4.09,0.71-6.14,0.98
		c-0.88,0.11-1.08,0.57-1.19,1.33c-0.6,3.89-1.27,7.78-1.87,11.67c-0.74,4.8-1.44,9.6-2.16,14.4c-0.41,2.72-0.91,5.43-1.2,8.16
		c-0.25,2.35-0.27,4.72-0.35,7.09c-0.03,0.74-0.04,1.27,1.12,0.77c2.03-0.88,4.2-1.45,6.32-2.12c0.36-0.12,0.77-0.08,1.14-0.18
		c1.26-0.31,1.2,0.44,0.97,1.24c-0.31,1.12-1.87,2.07-3.11,2.29c-2.62,0.45-5.25,0.9-7.71,2.06c-0.69,0.33-1.63,0.09-2.43,0.25
		c-1.88,0.4-3.73,0.91-5.61,1.31c-0.71,0.15-1.76,0.69-1.98-0.43c-0.18-0.93,0.77-1.1,1.61-1.29c2.03-0.46,4.05-1.03,6.01-1.73
		c0.52-0.19,1.06-1,1.16-1.6c1.24-7.33,2.4-14.68,3.59-22.02c1.01-6.18,2.04-12.35,3.06-18.52c0.05-0.28,0.1-0.55,0.17-0.83
		c0.32-1.45,0.33-1.43-1.12-1.14c-1.99,0.39-3.98,0.78-5.98,1.1c-0.46,0.07-1.25,0.03-1.38-0.22c-0.21-0.43-0.16-1.12,0.04-1.58
		C13.37,14.63,14.12,13.89,15.56,14.27z"/>
	<path class="st0" d="M13.4,43.16c2.58-0.32,4.47-1.79,6.37-3.21c0.78-0.58,1.43-1.34,2.13-2.02c2.31-2.22,3.25-5.16,3.87-8.12
		c1.1-5.31,1.9-10.69,2.87-16.04c0.14-0.78,0.48-1.55,0.86-2.25c0.18-0.32,0.67-0.47,1.03-0.7c0.2,0.41,0.53,0.82,0.57,1.24
		c0.06,0.7-0.02,1.42-0.14,2.11c-1.17,6.4-2.51,12.78-3.5,19.21c-0.88,5.72-1.44,11.49-2.02,17.25c-0.34,3.39-0.41,6.81-0.66,10.22
		c-0.05,0.68-0.28,1.38-0.58,2c-0.15,0.31-0.66,0.44-1.01,0.65c-0.17-0.31-0.44-0.61-0.49-0.93c-0.11-0.75-0.21-1.52-0.12-2.27
		c0.59-5.18,1.23-10.36,1.83-15.54c0.28-2.41,0.49-4.82,0.78-7.62c-0.53,0.57-0.79,0.88-1.08,1.16c-2.25,2.17-4.45,4.41-6.81,6.47
		c-0.82,0.71-2.05,0.97-3.1,1.41c-0.7,0.29-1.17,0.68-1.21,1.54c-0.18,4.45-0.39,8.9-0.64,13.34c-0.04,0.79-0.24,1.62-0.58,2.33
		c-0.18,0.38-0.82,0.55-1.25,0.81c-0.22-0.41-0.6-0.81-0.61-1.22c-0.03-1.14,0.04-2.29,0.17-3.42c0.42-3.83,0.9-7.65,1.33-11.48
		c0.49-4.41,0.9-8.83,1.45-13.23c0.74-5.91,1.56-11.82,2.38-17.72c0.2-1.45,0.49-2.88,0.75-4.32c0.06-0.31,0.13-0.67,0.32-0.9
		c0.2-0.24,0.55-0.37,0.83-0.54c0.1,0.28,0.32,0.57,0.28,0.82c-0.38,2.69-0.84,5.36-1.2,8.05c-0.46,3.38-0.88,6.77-1.3,10.15
		c-0.36,2.91-0.71,5.82-1.06,8.73C13.69,40.41,13.56,41.7,13.4,43.16z"/>
	<path class="st0" d="M31.57,44.91c-0.91,0.45-1.83,0.9-2.74,1.35c-1.13,0.56-2.25,1.15-3.41,1.65c-0.35,0.15-0.97,0.21-1.18,0.01
		c-0.23-0.22-0.3-0.85-0.16-1.19c0.22-0.53,0.57-1.16,1.05-1.42c2.48-1.36,5.01-2.63,7.55-3.9c0.71-0.36,1.38-0.02,1.11,0.75
		c-0.4,1.13,0.01,2.13,0.05,3.19c0.06,1.31-0.25,2.63-0.25,3.94c0,2.25,0.2,4.5,0.17,6.74c-0.01,0.94-0.32,1.9-0.66,2.8
		c-0.1,0.27-0.72,0.34-1.1,0.51c-0.14-0.34-0.39-0.67-0.41-1.01c-0.08-1.15-0.07-2.31-0.11-3.47c-0.03-0.81-0.1-1.62-0.15-2.43
		c-0.12-0.03-0.23-0.06-0.35-0.09c-0.34,0.75-0.58,1.57-1.05,2.23c-2.56,3.61-5.29,7.03-9.42,9.04c-1.72,0.84-3.01,0.77-4.83-0.11
		c-3.34-1.63-5.8-3.9-7.12-7.27c-0.74-1.9-1.28-3.98-1.35-6.01c-0.18-4.6,0.1-9.24,1.5-13.64c1.12-3.53,2.58-6.99,4.25-10.31
		c2.1-4.18,4.89-7.95,8.41-11.07c1.81-1.6,3.66-3.2,5.96-4.15c1.07-0.44,1.95-0.23,2.98,0.18c0.93,0.37,1.48,0.65,2.04,1.67
		c1.45,2.62,1.48,5.36,1.43,8.15c-0.01,0.39-0.41,0.78-0.63,1.17c-0.15-0.37-0.38-0.73-0.43-1.12c-0.23-1.51-0.25-3.07-0.63-4.53
		c-0.86-3.25-3.31-3.64-6.14-2.31c-3.87,1.81-6.61,4.89-8.94,8.32c-1.81,2.67-3.55,5.43-4.87,8.36C10.38,34.84,9.17,39,8.86,43.27
		c-0.26,3.57-0.4,7.21,1.01,10.69c0.97,2.39,2.48,4.28,4.55,5.76c0.73,0.52,1.43,1.43,2.19,1.48c1.81,0.12,3.74,0.13,5.34-1
		c2.6-1.85,5.09-3.81,6.39-6.92c1.13-2.71,2.42-5.35,3.63-8.01C31.84,45.15,31.7,45.03,31.57,44.91z"/>
	<path class="st0" d="M9.28,53.91c0.25-4.62,0.53-9.23,0.74-13.85c0.06-1.24-0.12-2.49-0.13-3.73c0-0.3,0.25-0.6,0.34-0.91
		c0.16-0.52,0.38-1.05,0.44-1.58c0.31-3.21,0.58-6.43,0.84-9.64c0.04-0.5,0.04-1-0.02-1.5c-0.02-0.15-0.29-0.35-0.47-0.39
		c-1.22-0.26-1.88-1.22-1.46-2.35c0.23-0.61,0.6-1.21,1.04-1.7c0.69-0.78,1.55-1.39,1.67-2.59c0.06-0.6,0.63-1.06,1.14-0.3
		c0.4,0.6,0.69,0.38,1.22,0.22c2.52-0.78,5.07-1.46,7.61-2.18c1.6-0.45,3.17-1,4.79-1.32c2.46-0.5,4.94-0.86,7.42-1.23
		c0.75-0.11,1.28,0.25,1.39,1.09c0.18,1.39-1.01,2.94-2.33,2.68c-3.1-0.62-6.03,0.37-9.02,0.7c-3.21,0.35-6.3,1.21-9.29,2.48
		c-1.2,0.5-1.8,1.03-1.9,2.49c-0.27,4.27-0.8,8.53-1.26,12.78c-0.15,1.36-0.07,1.45,1.2,1.03c3.73-1.22,7.45-2.46,11.21-3.58
		c1.01-0.3,2.18,0.08,3.14-0.66c0.09-0.07,0.61,0.22,0.73,0.45c0.43,0.85-0.4,2.8-1.3,2.69c-1.85-0.22-3.24,0.92-4.9,1.23
		c-3.09,0.58-6.09,1.58-9.14,2.34c-0.99,0.25-1.37,0.76-1.38,1.74c-0.09,6.24-0.24,12.47-0.28,18.71c-0.01,1.32,0.48,2.64,0.51,3.96
		c0.02,0.89-0.27,1.83-0.62,2.66c-0.13,0.31-0.83,0.47-1.29,0.49c-0.16,0.01-0.49-0.57-0.52-0.9c-0.12-1.27-0.19-2.54-0.21-3.82
		c-0.03-1.84-0.01-3.68-0.01-5.52C9.24,53.91,9.26,53.91,9.28,53.91z"/>
	<path class="st0" d="M16.03,13.82c0.28,1.89,0.25,1.78,2.12,1.19c2.66-0.85,5.36-1.56,8.06-2.27c2.57-0.68,5.16-1.3,7.75-1.9
		c0.27-0.06,0.78,0.1,0.87,0.3c0.16,0.33,0.24,0.99,0.05,1.13c-0.64,0.51-1.36,1.05-2.13,1.22c-2.9,0.64-5.91,0.9-8.74,1.75
		c-2.93,0.88-5.72,2.26-8.55,3.48c-0.29,0.13-0.51,0.64-0.59,1.01c-1.2,5.15-2.36,10.32-3.55,15.47c-0.22,0.97,0.21,1.48,1.1,1.39
		c1.32-0.13,2.63-0.38,3.92-0.69c1.88-0.46,3.77-0.91,5.59-1.56c3-1.07,5.94-2.34,8.94-3.42c0.81-0.29,1.85-0.5,2.59-0.21
		c0.51,0.2-0.3,2.29-1.22,2.74c-0.81,0.39-1.72,0.58-2.6,0.83c-3.39,0.94-6.79,1.85-10.18,2.78c-2.22,0.61-4.44,1.27-6.68,1.81
		c-1.51,0.37-2.47,1.03-2.63,2.74c-0.56,5.7-1.31,11.38-1.8,17.09c-0.23,2.75,0.03,2.76,2.74,2.22c3.5-0.7,7.08-1.06,10.54-1.9
		c3.71-0.91,7.31-2.23,10.98-3.32c0.5-0.15,1.11,0.04,1.67,0.08c-0.07,0.57,0.06,1.31-0.25,1.68c-0.54,0.66-1.28,1.39-2.07,1.58
		c-2.88,0.7-5.82,1.13-8.71,1.79c-3.08,0.7-6.13,1.59-9.21,2.29c-2.04,0.46-3.98,1.39-6.22,0.97c-1.32-0.25-1.88-0.84-1.79-2.02
		c0.13-1.76,0.37-3.52,0.63-5.27c0.77-5.12,1.6-10.23,2.36-15.35c0.08-0.51-0.15-1.07-0.17-1.6c-0.01-0.46-0.1-1.07,0.14-1.37
		c1.83-2.27,1.73-5.13,2.38-7.73c1.16-4.67,2.07-9.39,3.14-14.08c0.23-1.02,0.71-1.99,1.08-2.99
		C15.73,13.71,15.88,13.77,16.03,13.82z"/>
	<path class="st0" d="M9.43,13.97c0.44,0.5,0.83,0.76,0.9,1.09c0.07,0.3-0.24,0.98-0.32,0.97c-0.78-0.09-1.61-0.17-2.3-0.51
		c-0.29-0.14-0.44-0.91-0.39-1.37c0.2-1.74,2.37-3.51,4.17-3.18c2.79,0.52,5.66,0.4,8.39,1.48c4.69,1.85,8.76,4.47,11.77,8.57
		c1.02,1.39,2.05,2.78,3.01,4.22c3.41,5.11,3.56,10.54,1.75,16.25c-1.29,4.07-4.28,6.8-7.13,9.66c-1.13,1.14-2.27,2.31-3.57,3.23
		c-1.97,1.39-4.02,2.7-6.16,3.82c-2.09,1.09-4.35,1.86-6.5,2.84c-0.41,0.19-0.71,0.65-0.99,1.05c-0.4,0.56-0.64,1.25-1.1,1.73
		c-0.54,0.57-1.27,0.55-1.43-0.33c-0.19-1.02-0.61-0.86-1.43-0.78c-1.17,0.12-2.4-0.02-3.55-0.27c-0.99-0.22-1.73-3.39-1.01-4.16
		c0.15-0.16,0.87-0.07,1.04,0.14c1.12,1.38,2.53,1.57,4.16,1.32c0.74-0.11,0.95-0.39,1-1.09c0.41-6.11,0.84-12.23,1.31-18.34
		c0.39-5,0.85-9.99,1.28-14.98c0.3-3.5,0.57-7,0.88-10.49c0.09-0.97,0.03-1.61-1.24-1.23C11.25,13.82,10.48,13.83,9.43,13.97z
		 M11.8,53.88c0.03,0,0.06,0,0.09,0.01c0,1.33-0.03,2.66,0.01,3.99c0.02,0.82,0.36,1.42,1.31,0.99c1.94-0.87,3.88-1.74,5.78-2.7
		c4.03-2.06,7.53-4.88,10.77-8c2.85-2.74,5.06-5.88,5.61-9.92c0.56-4.1-0.11-8.12-2.12-11.66c-2.27-3.99-5.28-7.52-9.34-9.85
		c-2.31-1.33-4.86-2.17-7.53-2.6c-1.65-0.26-1.71-0.36-1.88,1.3c-0.34,3.26-0.63,6.53-0.87,9.81c-0.37,5.17-0.7,10.34-1.03,15.51
		C12.32,45.13,12.06,49.5,11.8,53.88z"/>
	<path class="st0" d="M34.77,22.31c0,1.45,0.09,2.9-0.03,4.34c-0.07,0.86-0.42,1.73-0.77,2.53c-0.14,0.31-0.64,0.46-0.98,0.69
		c0.01-0.36,0.03-0.71,0.03-1.07c0.01-2.38,0.18-4.77-0.01-7.13c-0.14-1.79-0.51-3.63-1.19-5.28c-1.09-2.64-2.66-3.02-5.16-1.61
		c-1.59,0.9-3.26,1.69-4.75,2.74c-3.92,2.75-6.44,6.73-8.89,10.68c-3.67,5.92-5.72,12.41-5.59,19.43c0.06,3.5,1.14,6.81,3.33,9.59
		c0.79,1,2.08,1.61,3.16,2.37c0.87,0.61,1.73,1.09,2.84,1.4c5.37,1.53,9.49,0.2,12.98-3.7c0.73-0.81,1.21-1.84,1.83-2.76
		c0.17-0.25,0.43-0.44,0.64-0.65c0.11,0.33,0.4,0.72,0.31,0.98c-0.4,1.09-0.79,2.22-1.4,3.19c-2.24,3.59-5.58,5.54-9.72,6.04
		c-3.02,0.36-6.14-0.28-8.47-1.92c-2.4-1.68-4.37-4.13-5.46-7.14C5.04,48.31,6,41.85,8.24,35.31c1.45-4.23,3.77-7.89,6.1-11.62
		c2.1-3.36,4.67-6.24,7.84-8.51c2.21-1.58,4.36-3.31,7.07-4.15c1.35-0.42,2.22,0.1,2.92,0.87c1.42,1.55,1.97,3.58,2.32,5.6
		c0.27,1.58,0.31,3.2,0.45,4.81C34.89,22.3,34.83,22.3,34.77,22.31z"/>
	<path class="st0" d="M13.28,18.06c-1.33,1.39-1.67,2.97-1.25,4.72c0.08,0.33,0.2,0.66,0.24,0.99c0.06,0.52,0.07,1.05,0.1,1.58
		c-0.47-0.35-1.2-0.62-1.35-1.08c-0.37-1.15-0.86-2.46-0.62-3.57c0.87-4.17,3.23-7.31,7.07-9.33c1-0.52,1.88-0.61,2.99-0.66
		c2.38-0.11,4.17,1.18,6.17,1.96c1.62,0.63,2.54,2.61,2.14,4.42c-0.67,3.03-1.84,5.91-3.89,8.26c-1.78,2.05-3.82,3.88-5.8,5.76
		c-0.73,0.69-1.59,1.24-2.39,1.86c0.12,0.12,0.25,0.24,0.37,0.36c2.44,0.59,4.95,0.99,7.31,1.79c5.75,1.96,8.4,4.93,8.02,10.95
		c-0.32,5.11-2.1,9.72-5.61,13.45c-2.12,2.25-4.85,3.76-8.05,4.07c-1.54,0.15-2.98,0.79-4.65,0.21c-3.06-1.06-5.12-4.59-4.21-7.68
		c0.03-0.11,0.07-0.26,0.15-0.3c2.12-1.12,1.21-3.2,1.36-4.81c0.42-4.41,0.53-8.86,0.71-13.3c0.02-0.55-0.33-1.1-0.39-1.66
		c-0.06-0.53-0.04-1.09,0.08-1.61c0.14-0.6,0.58-1.16,0.62-1.75C12.72,27.82,12.99,22.94,13.28,18.06z M16.65,36.25
		c-0.57-0.05-1.13-0.07-1.7-0.16c-1.13-0.17-1.55,0.16-1.57,1.44c-0.08,6.08-0.29,12.16-0.47,18.24c-0.02,0.68-0.04,1.38-0.2,2.03
		c-0.46,1.78-0.46,1.84,1.25,2.6c0.41,0.19,0.8,0.48,1.23,0.58c1.38,0.31,2.71,1.14,4.2,0.38c0.7-0.36,1.47-0.58,2.21-0.88
		c2.8-1.16,5.36-2.73,6.69-5.52c0.99-2.08,1.83-4.34,2.18-6.6c0.5-3.27,0.02-6.39-2.87-8.74c-1.16-0.94-2.29-1.68-3.69-2.24
		C21.55,36.44,19.12,36.3,16.65,36.25z M13.67,32.06c0.15,0.12,0.3,0.24,0.45,0.36c1.97-1.4,4.03-2.68,5.89-4.21
		c3.18-2.61,5.67-5.78,6.69-9.86c0.18-0.74,0.19-1.91-0.25-2.37c-2.64-2.76-7.09-3.69-10.54-1.59c-0.86,0.53-1.35,1.27-1.38,2.38
		c-0.05,2.16-0.25,4.31-0.37,6.46C13.98,26.17,13.83,29.11,13.67,32.06z"/>
	<path class="st0" d="M14.43,25.61c0.74-2.42,1.35-4.89,2.27-7.24c0.83-2.12,1.82-4.24,3.08-6.13c1.38-2.06,3.27-1.79,4.37,0.44
		c1.95,3.95,3.14,8.15,3.72,12.52c0.82,6.17,1.75,12.34,2.34,18.54c0.41,4.29,0.34,8.64,0.42,12.96c0.01,0.72-0.29,1.46-0.56,2.15
		c-0.1,0.26-0.5,0.4-0.77,0.6c-0.18-0.26-0.48-0.5-0.51-0.77c-0.11-0.91-0.16-1.84-0.17-2.76c-0.05-3.58-0.09-7.16-0.13-10.74
		c0-0.17,0.04-0.36,0-0.52c-0.51-1.99,0.26-2.41-2.52-2.07c-3.72,0.46-7.43,0.92-11.15,1.36c-1.16,0.14-1.64,0.67-1.66,1.91
		c-0.1,4.97-0.28,9.93-0.48,14.9c-0.04,0.9-0.19,1.84-0.49,2.68c-0.12,0.35-0.77,0.52-1.18,0.77c-0.18-0.39-0.53-0.79-0.51-1.17
		c0.08-2.89,0.21-5.77,0.38-8.66c0.16-2.83,0.33-5.66,0.61-8.48c0.11-1.14-0.24-1.34-1.23-1.01c-0.82,0.27-1.65,0.53-2.5,0.67
		c-0.44,0.07-0.92-0.12-1.38-0.19C6.64,44.81,6.75,44,7.17,43.8c1.02-0.48,2.17-0.93,3.28-0.93c1.18,0,1.43-0.62,1.49-1.44
		c0.41-5.58,0.8-11.16,1.16-16.74c0.12-1.84,0.11-3.69,0.24-5.53c0.03-0.35,0.42-0.68,0.64-1.02c0.15,0.35,0.42,0.7,0.42,1.05
		c-0.01,1.73-0.08,3.46-0.14,5.19c-0.01,0.4-0.08,0.79-0.12,1.19C14.23,25.58,14.33,25.59,14.43,25.61z M13.42,40.01
		c-0.03,2.24,0.02,2.33,1.66,1.96c2.48-0.55,4.92-1.26,7.41-1.78c1.51-0.32,3.06-0.45,4.61-0.6c0.64-0.06,0.92-0.19,0.81-0.92
		c-0.79-5.35-1.48-10.72-2.33-16.07c-0.47-2.95-1.42-5.76-3.41-8.1c-1.08-1.28-1.28-1.35-1.98,0.12c-1.12,2.33-2.16,4.7-3.04,7.13
		C14.96,27.82,14.12,34.17,13.42,40.01z"/>
</g>
<g id="Lower_Case">
	<path class="st0" d="M29.12,46.92c0.69,3.61,1.4,7.21,2.05,10.82c0.14,0.8,0.19,1.66,0.05,2.46c-0.07,0.4-0.62,0.9-1.02,0.98
		c-0.31,0.06-1.01-0.41-1.07-0.73c-0.33-1.67-0.52-3.36-0.73-5.05c-0.22-1.85-0.38-3.71-0.6-5.57c-0.03-0.23-0.27-0.44-0.41-0.66
		c-0.22,0.21-0.53,0.38-0.64,0.64c-2.14,5.33-5.99,9.33-10.3,12.89c-0.97,0.8-2.49,1.23-3.78,1.29c-2.98,0.12-4.3-2.85-4.38-5.75
		c-0.06-2.11,0.32-4.34,1.02-6.34c1.76-4.98,4.64-9.34,8.57-12.89c1.72-1.55,3.61-3.02,6.08-3.35c1.1-0.15,2.07-0.13,2.6,1.03
		c0.43,0.94,0.94,1.87,1.21,2.86c0.31,1.15,0.32,2.21,1.28,3.28c0.74,0.82,0.36,2.64,0.48,4.02C29.39,46.87,29.26,46.89,29.12,46.92
		z M10.86,55.79c0,0.28-0.01,0.56,0,0.84c0.17,3.2,2.19,4.25,4.93,2.57c3.7-2.27,6.76-5.13,8.36-9.27c1.09-2.82,1.8-5.73,0.99-8.78
		c-0.49-1.83-1.74-2.39-3.46-1.66c-2.66,1.12-4.6,3.13-6.27,5.33C12.96,48.05,11.03,51.58,10.86,55.79z"/>
	<g id="Layer_28" class="st0">
		<path class="st1" d="M15.34,14.96c0,3.19,0.15,6.39-0.04,9.57c-0.23,3.95-0.75,7.89-1.12,11.83c-0.2,2.09-0.37,4.19-0.47,6.29
			c-0.02,0.45,0.35,0.92,0.54,1.38c0.44-0.25,1.02-0.41,1.3-0.78c1.33-1.72,2.46-3.62,3.9-5.24c2.07-2.31,6.41-1.66,8.11,0.92
			c3.28,4.99,2.25,9.96,0.01,14.89c-1.88,4.12-5.23,6.92-8.95,9.3c-2.29,1.46-3.81,0.71-4.27-1.93c-0.07-0.39-0.14-0.77-0.24-1.15
			c-0.28-1.02-0.86-1.07-1.47-0.32c-0.49,0.6-0.79,1.35-1.26,1.97c-0.24,0.31-0.68,0.48-1.02,0.71c-0.14-0.41-0.43-0.83-0.39-1.23
			c0.12-1.4,0.35-2.79,0.53-4.19c0.62-5.03,1.29-10.05,1.84-15.09c0.47-4.26,0.93-8.52,1.14-12.8c0.17-3.46-0.07-6.95-0.09-10.42
			c-0.01-2.03,0.01-4.06,0.16-6.07c0.04-0.5,0.62-0.95,0.95-1.43c0.26,0.48,0.64,0.94,0.74,1.45c0.16,0.76,0.12,1.56,0.17,2.34
			C15.37,14.95,15.35,14.95,15.34,14.96z M18.28,58.8c0.92-0.13,1.93-0.06,2.73-0.44c5.48-2.64,7.26-10.54,5.03-14.97
			c-0.66-1.3-1.79-2.9-3.89-2.86c-2.34,0.04-4.3,1.27-5.2,3.85c-1.03,2.94-1.69,6.01-2.8,8.91C12.78,56.89,15.1,59.16,18.28,58.8z"
			/>
	</g>
	<g id="Layer_29" class="st0">
		<path class="st1" d="M26.28,40.56c-0.6-1.15-0.99-2.48-1.84-3.39c-1.13-1.21-2.56-0.27-3.6,0.33c-5.62,3.25-9.29,7.88-9.99,14.57
			c-0.25,2.45,0.7,4.51,1.85,6.49c0.23,0.4,1.17,0.4,1.79,0.57c6.75,1.82,11.52-1,15.2-6.44c0.3-0.44,0.84-0.71,1.27-1.05
			c0.08,0.63,0.39,1.33,0.2,1.87c-0.98,2.91-2.59,5.38-5.27,7.05c-1.35,0.84-2.59,1.91-4,2.62c-2.76,1.37-5.77,1.02-8.73,0.89
			c-0.14-0.01-0.31-0.1-0.41-0.2c-0.3-0.32-0.6-0.65-0.86-1c-1.94-2.64-3.96-5.25-3.44-8.85c0.25-1.73,0.36-3.48,0.74-5.18
			c0.82-3.68,2.88-6.76,5.24-9.59c1.31-1.57,3.03-2.82,4.64-4.12c1.97-1.6,4.2-1.55,6.43-0.62c2.34,0.98,3.04,5.76,1.15,7.66
			c-0.14,0.14-0.38,0.19-0.58,0.28c-0.14-0.53-0.28-1.05-0.42-1.58C25.86,40.75,26.07,40.65,26.28,40.56z"/>
	</g>
	<g id="Layer_30" class="st0">
		<path class="st1" d="M23.54,56.19c-2.95,2.99-5.73,6.05-8.79,8.8c-1.42,1.28-3.3,2.2-5.12,2.86c-1.82,0.66-3.75-0.97-4.13-2.99
			c-0.68-3.59,0.67-6.7,2.36-9.64c2.47-4.28,5.6-7.96,9.97-10.56c1.86-1.1,3.63-1.15,5.46-0.59c2.99,0.91,2.62,0.46,2.97-1.7
			c1.72-10.35,3.2-20.74,4.84-31.11c0.17-1.1,0.73-2.16,1.23-3.17c0.15-0.3,0.8-0.59,1.12-0.5c0.33,0.09,0.74,0.62,0.76,0.99
			c0.07,1.15,0.11,2.32-0.06,3.45c-1.35,9.04-2.65,18.08-4.2,27.08c-0.56,3.23-2.05,6.3-2.6,9.52c-0.57,3.29-0.52,6.69-0.71,10.04
			c-0.02,0.37,0.27,0.86,0.12,1.12c-0.54,0.92-1.1,2.34-1.87,2.49c-1.34,0.27-1.23-1.29-1.32-2.19
			C23.43,58.74,23.54,57.36,23.54,56.19z M11.02,63.25c0.89-0.37,1.87-0.62,2.67-1.13c4.73-3.06,7.94-7.34,10.13-12.51
			c0.51-1.2,0.31-1.69-0.59-2.41c-1.21-0.96-2.29-0.73-3.6-0.22c-3.94,1.52-6.35,4.69-8.68,7.9C9.84,56.39,9,58.2,8.45,60
			C7.82,62.09,8.71,63,11.02,63.25z"/>
	</g>
	<g id="Layer_31" class="st0">
		<path class="st1" d="M25.15,41.2c-5.72,2.35-10.81,5.38-12.71,11.82c-0.72,2.45,0.44,4.1,2.98,4.2c3.5,0.13,6.84-0.35,9.87-2.31
			c1.32-0.85,2.77-1.5,4.2-2.18c0.28-0.13,0.7,0.01,1.05,0.02c-0.11,0.42-0.08,1.01-0.35,1.24c-1.93,1.59-3.8,3.3-5.92,4.58
			c-1.87,1.13-4.11,1.64-6.09,2.63c-1.73,0.87-3.29,1.16-4.88-0.17c-0.06-0.05-0.13-0.07-0.2-0.11c-4.2-2.37-4.85-3.93-3.2-8.5
			c1.89-5.23,5.43-9.22,9.98-12.3c1.82-1.24,3.79-2.3,5.81-3.2c1.57-0.7,2.78,0.19,2.87,1.9c0.04,0.67-0.06,1.43-0.36,2.02
			c-2.74,5.41-6.96,9.2-12.69,11.24c-0.52,0.19-1.21-0.1-1.82-0.16c0.34-0.57,0.54-1.38,1.04-1.66
			C18.83,47.95,22.36,45.01,25.15,41.2z"/>
	</g>
	<g id="Layer_32" class="st0">
		<path class="st1" d="M18.02,53.59c1.1-0.32,2.18-0.75,3.31-0.91c0.57-0.08,1.22,0.34,1.84,0.53c-0.19,0.5-0.21,1.2-0.59,1.47
			c-1.18,0.83-2.42,1.67-3.79,2.17c-1.3,0.47-1.63,1.26-1.79,2.34c-0.36,2.48-0.75,4.96-1.13,7.44c-0.04,0.28-0.02,0.62-0.19,0.81
			c-0.59,0.62-1.25,1.19-1.88,1.78c-0.15-0.75-0.5-1.53-0.42-2.26c0.3-2.49,0.76-4.97,1.15-7.45c0.11-0.71,0.12-1.22-0.9-1.57
			c-3.2-1.08-3.88-2.39-2.57-5.28c1.13-2.5,2.63-4.85,3.94-7.29c0.36-0.68,0.85-1.39,0.89-2.1c0.28-4.93,0.36-9.87,0.67-14.8
			c0.41-6.39,0.7-12.8,1.63-19.13c0.37-2.56,2.14-4.99,3.55-7.35c0.69-1.16,1.96-2.25,3.71-1.66c1.73,0.59,2.69,1.83,3.13,3.52
			c0.96,3.68,0.59,7.33-0.02,10.99c-1.44,8.52-4.32,16.63-8.28,24.42C18.4,42.95,17.36,49.53,18.02,53.59z M18.98,38.05
			c0.76-1.54,1.77-3.1,2.3-4.78c1.71-5.47,3.49-10.95,4.72-16.52c0.67-3.02,0.45-6.25,0.26-9.36c-0.06-0.97-1.34-1.88-2.06-2.81
			c-0.82,0.63-2.08,1.12-2.38,1.92c-0.89,2.34-1.73,4.77-2,7.22c-0.5,4.42-0.66,8.89-0.81,13.34C18.88,30.7,18.98,34.36,18.98,38.05
			z M15.46,49.9c-0.15-0.05-0.29-0.1-0.44-0.15c-0.55,1-1.18,1.98-1.58,3.03c-0.11,0.29,0.5,0.81,0.78,1.22
			c0.29-0.3,0.76-0.57,0.83-0.91C15.27,52.04,15.34,50.96,15.46,49.9z"/>
	</g>
	<g id="Layer_33" class="st0">
		<path class="st1" d="M25.64,49.66c-2.35,1.61-4.4,3.2-6.62,4.48c-2.9,1.68-5.89,0.95-7.56-1.94c-0.56-0.97-0.63-2.64-0.21-3.69
			c1.83-4.55,4.87-8.09,9.58-9.93c1.16-0.45,2.11-1.55,3.62-0.85c2.03,0.93,3.53,2.36,4.63,4.26c0.11,0.19,0.23,0.48,0.16,0.64
			c-1.51,3.68,0.04,7.44-0.31,11.15c-0.52,5.5-0.81,11.02-1.4,16.51c-0.17,1.56-0.87,3.11-1.57,4.54c-2.38,4.91-9.1,5.56-12.84,3.51
			c-1.35-0.74-3.03-4.46-2.76-6.05c0.05-0.28,0.25-0.76,0.38-0.76c0.31,0,0.69,0.17,0.93,0.39c2.37,2.12,4.97,3.57,8.3,3.21
			c2.59-0.28,3.94-1.33,4.56-3.79C26.33,64.26,26.46,57.07,25.64,49.66z M16.95,50.81c1.52-0.63,2.8-1.05,3.98-1.68
			c2.2-1.17,3.52-3.14,4.46-5.38c0.22-0.53,0.39-1.07,0.59-1.61c-0.71-0.17-1.44-0.53-2.13-0.48c-3.46,0.23-6.24,1.86-8.54,4.4
			c-0.83,0.91-1.59,1.92-0.81,3.04C15,49.84,16.04,50.21,16.95,50.81z"/>
	</g>
	<g id="Layer_34" class="st0">
		<path class="st1" d="M15.62,48.51c1.22-2.07,2.38-4.24,3.73-6.27c0.52-0.79,1.39-1.43,2.24-1.9c1.04-0.58,1.96-0.26,2.34,0.98
			c0.78,2.55,1.74,5.07,2.23,7.68c0.57,3.01,0.92,6.04,2.52,8.75c0.19,0.33,0.03,1.24-0.24,1.39c-0.69,0.37-1.77,0.88-2.26,0.59
			c-0.89-0.52-1.85-1.49-2.09-2.44c-0.92-3.56-1.56-7.2-2.33-10.81c-0.09-0.41-0.31-0.8-0.47-1.19c-0.43,0.26-1.06,0.42-1.25,0.8
			c-1.16,2.32-2.4,4.62-3.28,7.05c-1.14,3.18-1.94,6.47-2.93,9.71c-0.35,1.15-0.6,2.73-2.15,2.39c-0.49-0.11-0.96-1.98-0.83-2.97
			c0.51-3.8,1.27-7.57,1.94-11.35c1.17-6.64,2.38-13.26,3.51-19.91c1.03-6.04,1.98-12.09,2.97-18.13c0.01-0.08,0.02-0.16,0.06-0.22
			c0.52-0.74,1.04-1.47,1.57-2.21c0.04,0.81,0.22,1.64,0.1,2.43c-0.59,4.18-1.24,8.34-1.88,12.51
			C17.96,33.09,16.79,40.79,15.62,48.51z"/>
	</g>
	<g id="Layer_35" class="st0">
		<path class="st1" d="M23.29,45.17c-1.01,4.95-2.01,9.91-3.04,14.86c-0.11,0.51-0.27,1.15-0.64,1.43
			c-0.56,0.42-1.32,0.58-1.99,0.85c-0.2-0.61-0.49-1.2-0.58-1.82c-0.06-0.43,0.13-0.91,0.23-1.35c1.17-5,2.34-9.99,3.51-14.98
			c0.07-0.3,0-0.67,0.15-0.9c0.34-0.51,0.78-0.96,1.19-1.43c0.26,0.55,0.62,1.08,0.76,1.67c0.13,0.51,0.03,1.07,0.03,1.61
			C23.04,45.12,23.17,45.14,23.29,45.17z"/>
		<path class="st1" d="M24.33,27.03c-0.6,1.12-0.87,2.07-1.49,2.65c-0.43,0.41-1.66,0.65-1.95,0.37c-0.48-0.48-0.91-1.7-0.63-2.12
			c0.6-0.9,1.62-1.57,2.58-2.12C23.01,25.7,23.74,26.54,24.33,27.03z"/>
	</g>
	<g id="Layer_36" class="st0">
		<path class="st1" d="M23.53,42.78c1.05-1.03,1.64-1.74,2.36-2.25c0.5-0.36,1.18-0.45,1.79-0.67c-0.02,0.62,0.16,1.35-0.09,1.85
			c-0.76,1.49-1.79,2.84-2.54,4.33c-0.81,1.61-1.87,3.26-2.04,4.98c-0.58,6.09-0.67,12.22-1.25,18.31
			c-0.57,5.94-1.35,11.89-2.43,17.76c-0.38,2.08-1.72,4.07-2.97,5.86c-0.96,1.37-2.12,1.22-2.81-0.35
			c-0.81-1.85-1.63-3.88-1.65-5.85c-0.1-7.09,0.82-14.08,2.65-20.97c1.69-6.39,3.73-12.59,6.54-18.6c1.15-2.46,0.94-5.54,1.37-8.34
			c0.14-0.91,0.23-1.84,0.51-2.7c0.13-0.41,0.68-0.68,1.04-1.02c0.13,0.46,0.42,0.93,0.37,1.38C24.16,38.41,23.86,40.33,23.53,42.78
			z M21.15,53.63c-0.19-0.06-0.38-0.11-0.58-0.17c-0.47,1.17-1.02,2.31-1.39,3.5c-0.75,2.41-1.47,4.82-2.07,7.27
			c-1.46,5.97-2.43,12.03-2.41,18.19c0.01,2.03,0.16,4.19,1.48,6.02C19.34,77.01,20.07,65.3,21.15,53.63z"/>
		<path class="st1" d="M23.25,19.97c-0.27,0.96-0.4,1.8-0.75,2.55c-0.17,0.38-0.88,0.91-1.05,0.81c-0.47-0.25-1.13-0.83-1.08-1.22
			c0.1-0.94,0.47-1.89,0.91-2.74c0.18-0.35,0.94-0.73,1.25-0.61C22.89,18.91,23.04,19.58,23.25,19.97z"/>
	</g>
	<g id="Layer_37" class="st0">
		<path class="st1" d="M18.01,39.39c2.1-1.62,3.92-3.03,5.74-4.43c0.61-0.47,1.18-1.05,1.86-1.34c0.45-0.19,1.2-0.13,1.59,0.15
			c0.26,0.19,0.32,1.02,0.14,1.42c-0.92,2.01-2.72,3.05-4.59,4c-0.74,0.37-1.55,0.66-2.18,1.18c-1.91,1.57-1.67,1.79-0.22,3.78
			c2.35,3.21,5.94,4.96,8.59,7.8c1.13,1.21,0.68,2.03,0.08,3.03c-0.7,1.15-1.48,1-2.45,0.2c-1.84-1.52-3.76-2.95-5.65-4.41
			c-0.24-0.19-0.47-0.41-0.73-0.55c-3.34-1.77-4.21-1.32-4.84,2.4c-0.43,2.5-0.94,4.98-1.47,7.45c-0.11,0.5-0.37,1.04-0.72,1.4
			c-0.6,0.62-1.45,0.69-1.4-0.38c0.17-3.9,0.45-7.8,0.86-11.68c0.09-0.82,0.75-1.76,1.43-2.3c1.61-1.29,1.65-2.94,1.54-4.72
			c-0.03-0.44,0-0.9,0.07-1.34c1.13-7.91,2.29-15.81,3.41-23.72c0.23-1.59,0.26-3.22,0.6-4.78c0.12-0.57,0.95-1.47,1.33-1.41
			c1.06,0.17,0.62,0.97,0.47,1.77c-0.56,3.17-0.97,6.37-1.38,9.56C19.4,27.95,18.74,33.43,18.01,39.39z"/>
	</g>
	<g id="Layer_38" class="st0">
		<path class="st1" d="M19.29,60.53c1.16-1.31,2.31-2.64,3.5-3.93c0.22-0.23,0.61-0.3,0.92-0.45c0.03,0.35,0.21,0.79,0.07,1.05
			c-1.35,2.49-2.67,5-4.2,7.37c-0.42,0.64-1.65,1.24-2.33,1.08c-0.59-0.14-1.21-1.33-1.31-2.13c-0.27-2.12-0.54-4.31-0.33-6.42
			c0.59-5.87,1.43-11.72,2.15-17.58c0.66-5.39,1.3-10.78,1.96-16.17c0.72-5.85,1.47-11.7,2.21-17.55c0.04-0.31-0.01-0.68,0.15-0.9
			c0.4-0.54,0.91-1.01,1.37-1.51c0.22,0.66,0.7,1.35,0.62,1.96c-1.2,8.8-2.63,17.57-3.68,26.39c-0.99,8.29-1.63,16.63-2.32,24.96
			c-0.1,1.22,0.34,2.48,0.53,3.73C18.82,60.46,19.06,60.49,19.29,60.53z"/>
	</g>
	<g id="Layer_39" class="st0">
		<path class="st1" d="M19.59,52.87c1.12-2.12,2.25-4.23,3.36-6.35c1.31-2.52,2.59-5.06,3.93-7.57c0.29-0.55,0.71-1.07,1.19-1.47
			c1.66-1.42,3.49-0.74,4.2,1.32c1.61,4.71,1.29,9.68,2.03,14.5c0.17,1.09,0.43,2.17,0.58,3.26c0.1,0.77,0.34,1.69,0.05,2.32
			c-0.36,0.76-1.21,1.28-1.85,1.91c-0.47-0.58-1.23-1.1-1.35-1.74c-0.37-1.93-0.83-3.94-0.63-5.85c0.4-3.7-1.29-6.97-1.67-10.49
			c-0.04-0.37-0.58-0.68-0.88-1.02c-0.27,0.27-0.6,0.51-0.78,0.83c-0.63,1.1-1.22,2.22-1.8,3.34c-2,3.85-4,7.71-6,11.56
			c-0.14,0.28-0.35,0.53-0.56,0.76c-1.6,1.7-2.84,1.51-3.61-0.69c-0.36-1.03-0.36-2.18-0.53-3.27c-0.36-2.42-0.7-4.84-1.11-7.24
			c-0.09-0.52-0.38-1.03-0.69-1.46c-0.21-0.28-0.77-0.64-0.95-0.54c-0.35,0.18-0.69,0.63-0.77,1.03c-0.91,4.33-1.76,8.67-2.65,13.01
			c-0.22,1.08-0.33,2.25-0.82,3.2c-0.34,0.64-1.26,0.97-1.93,1.44c-0.33-0.7-0.99-1.44-0.92-2.1c0.28-2.52,0.71-5.03,1.24-7.51
			c0.61-2.86,1.18-5.76,2.16-8.51c0.64-1.8,1.78-3.52,3.04-4.97c1.29-1.48,2.9-0.98,4.08,0.66c2.2,3.05,2.46,6.62,2.96,10.14
			c0.06,0.44,0.12,0.88,0.18,1.31C19.23,52.73,19.41,52.8,19.59,52.87z"/>
	</g>
	<g id="Layer_40" class="st0">
		<path class="st1" d="M26.08,60.27c0-2.23,0.23-4.48-0.05-6.67c-0.41-3.17-1.02-6.35-1.89-9.43c-0.38-1.34-1.62-2.44-2.47-3.65
			c-0.96,0.96-2.14,1.79-2.85,2.92c-2.93,4.61-4.32,9.79-5.25,15.12c-0.18,1.02-0.68,2.02-1.21,2.93c-0.25,0.43-0.9,0.63-1.37,0.94
			c-0.21-0.56-0.65-1.15-0.59-1.68c0.2-1.67,0.51-3.34,0.91-4.98c0.74-3.06,1.52-6.11,2.4-9.13c0.48-1.65,0.77-3.5,2.88-4.1
			c0.4-0.11,0.6-0.86,0.95-1.25c1.11-1.26,2.11-2.69,3.42-3.71c2.22-1.72,4.21-0.9,5.2,1.73c1.77,4.67,2.47,9.47,2.36,14.45
			c-0.05,2.21,0.23,4.45,0.56,6.64c0.21,1.37,0.25,2.56-1.32,2.86c-1.87,0.37-1.43-1.34-1.78-2.31c-0.08-0.21-0.07-0.45-0.1-0.68
			C25.96,60.28,26.02,60.28,26.08,60.27z"/>
	</g>
	<g id="Layer_41" class="st0">
		<path class="st1" d="M9.63,55.54c0.66-1.94,1.33-3.88,1.96-5.84c0.24-0.74,1.26-1.59-0.34-2.19c-0.3-0.11-0.42-1.24-0.3-1.84
			c0.48-2.6,4.38-5.33,8-5.13c0.59,0.03,1.19-0.06,1.77-0.16c3.27-0.57,6.02,0.19,8.62,2.46c2.82,2.46,2.69,5.13,1.86,8.32
			c-0.64,2.44-1.34,4.81-3.44,6.26c-2,1.38-4.26,2.38-6.42,3.51c-0.99,0.52-2.02,0.95-3.04,1.4C14.22,64.17,9.61,59.66,9.63,55.54z
			 M17.09,58.02c1.55-0.37,3.2-0.52,4.64-1.16c2-0.88,3.83-2.12,5.74-3.22c2.06-1.19,2.29-2.13,2.08-4.41
			c-0.29-3.17-2.34-4.85-4.88-5.74c-2.39-0.84-5.1-1.22-7.29,0.81c-2.86,2.66-4.39,6.06-4.57,9.88
			C12.68,56.74,14.24,57.83,17.09,58.02z"/>
	</g>
	<g id="Layer_42" class="st0">
		<path class="st1" d="M24.3,33.48c2.57,0.19,4.27,1.39,4.24,3.87c-0.02,2.72-0.27,5.59-1.17,8.12c-1.6,4.52-4.1,8.61-8.03,11.61
			c-0.36,0.28-0.77,0.71-1.15,0.7c-2.5-0.05-2.35,1.62-2.48,3.38c-0.34,4.45-0.78,8.89-1.37,13.31c-0.16,1.22-0.84,2.46-1.57,3.49
			c-0.53,0.75-1.44,0.65-1.63-0.48c-0.13-0.74-0.1-1.53-0.01-2.28c0.9-7.62,1.8-15.24,2.75-22.86c0.43-3.42,0.72-6.9,1.56-10.22
			c0.88-3.48,2.7-6.55,6.26-8.08C22.51,33.73,23.43,33.67,24.3,33.48z M16.13,54.39c4.2-1.14,7.17-4.29,8.49-8.99
			c0.47-1.68,0.89-3.5,0.74-5.2c-0.22-2.52-2.1-3.26-4.28-2.05c-1.74,0.96-2.84,2.48-3.18,4.34C17.21,46.33,16.74,50.22,16.13,54.39
			z"/>
	</g>
	<g id="Layer_43" class="st0">
		<path class="st1" d="M24.22,46.86c-1.99,1.77-3.94,3.6-6,5.29c-2,1.65-4.04,3.32-6.84,3.43c-2.23,0.08-2.99-0.68-3.16-2.93
			c-0.19-2.42,0.91-4.36,2.27-6.13c2.41-3.13,4.36-6.74,8.03-8.69c1.51-0.8,3.16-1.36,4.75-2c0.19-0.08,0.5-0.07,0.67,0.03
			c0.65,0.37,1.67,0.69,1.81,1.22c0.53,1.93,3.78,2.16,2.83,5.05c-1.1,3.35-1.82,6.82-2.69,10.24c-1.18,4.68-2.34,9.36-3.51,14.03
			c0.17,0.1,0.34,0.2,0.51,0.3c1.48-2.02,2.99-4.01,4.43-6.05c0.8-1.13,1.47-2.34,2.23-3.5c0.15-0.23,0.41-0.38,0.62-0.56
			c0.23,0.27,0.68,0.57,0.64,0.79c-0.23,1.25-0.31,2.64-0.92,3.7c-1.41,2.46-3.1,4.76-4.67,7.13c-0.8,1.21-1.53,2.47-2.37,3.65
			c-0.39,0.55-0.89,1.09-1.47,1.44c-1.11,0.67-2.26,0.17-2.34-1.12c-0.08-1.28,0.05-2.62,0.35-3.87c1.61-6.72,3.3-13.41,4.96-20.12
			c0.09-0.36,0.16-0.72,0.24-1.08C24.46,47.03,24.34,46.94,24.22,46.86z M24.28,42.2c-0.02-1.96-1.85-2.81-3.62-2.18
			c-2.35,0.84-3.69,2.86-5.36,4.47c-1.36,1.31-2.44,2.93-3.51,4.51c-0.36,0.53-0.29,1.34-0.42,2.03c0.79-0.02,1.67,0.18,2.35-0.1
			c3.89-1.62,7-4.33,9.73-7.49C23.84,43,24.11,42.46,24.28,42.2z"/>
	</g>
	<g id="Layer_44">
		<path d="M14.9,50.48c1.76-3.01,3.17-6.11,5.22-8.71c1.57-1.99,3.91-3.4,6-4.93c0.52-0.38,1.48-0.53,2.08-0.33
			c0.96,0.31,1.8,1.01,2.69,1.55c-0.72,0.59-1.37,1.29-2.16,1.76c-1.19,0.72-2.51,1.22-3.72,1.92c-4.86,2.85-6.53,7.8-8.18,12.72
			c-0.76,2.25-1.19,4.6-1.86,6.88c-0.2,0.67-0.62,1.36-1.13,1.83c-0.36,0.33-1.13,0.51-1.56,0.35c-0.38-0.15-0.79-0.87-0.77-1.33
			c0.24-6.4,0.52-12.8,0.88-19.2c0.03-0.53,0.64-1.02,0.98-1.53c0.32,0.55,0.85,1.08,0.92,1.67C14.57,45.56,14.71,48.02,14.9,50.48z
			"/>
	</g>
	<g id="Layer_45" class="st0">
		<path class="st1" d="M14.15,58.03c2.97,3.72,8.12,3.65,11.41,0.1c1.91-2.06,1.65-3.66-0.89-4.83c-3.2-1.47-6.43-2.87-9.6-4.41
			c-0.68-0.33-1.44,0.11-2.15-0.99c-1.98-3.1-2.24-5.02,0.69-7.17c2.29-1.68,5.1-2.72,7.76-3.83c1.45-0.6,3.09-1.06,4.63-1.02
			c1.24,0.03,2.69,0.67,3.61,1.51c0.53,0.48,0.27,1.91,0.21,2.91c-0.02,0.27-0.62,0.51-0.95,0.76c-0.06-0.33-0.18-0.67-0.18-1
			c0.02-1.32-1.02-1.32-1.77-1.19c-4,0.66-7.98,1.47-11.44,3.81c-0.98,0.66-1.44,1.02-0.07,2.05c2.41,1.82,4.73,3.61,7.66,4.62
			c2.1,0.73,4.23,1.8,5.25,4.07c0.27,0.6,0.5,1.33,0.4,1.94c-0.58,3.78-7.1,8.95-10.93,8.75c-2.47-0.13-3.22-0.79-3.63-3.15
			c-0.16-0.94-0.36-1.88-0.54-2.82C13.79,58.1,13.97,58.06,14.15,58.03z"/>
	</g>
	<g id="Layer_46" class="st0">
		<path class="st1" d="M13.77,59.59c0.36-3.38,0.63-5.81,0.87-8.23c0.05-0.53,0.25-1.23,0-1.58c-1.41-1.95-0.51-3.3,0.79-4.85
			c0.63-0.75,0.68-2.01,0.92-3.06c2.48-10.99,4.95-21.99,7.42-32.98c0.25-1.12,0.39-2.27,0.7-3.37c0.09-0.31,0.62-0.49,0.95-0.73
			c0.15,0.32,0.45,0.65,0.41,0.95c-0.12,0.9-0.37,1.79-0.56,2.69c-2.47,11.53-4.96,23.05-7.4,34.58c-0.4,1.86-0.26,1.84,1.56,1.49
			c1.24-0.24,2.55-0.22,3.82-0.12c0.51,0.04,1.33,0.58,1.37,0.95c0.05,0.47-0.45,1.29-0.91,1.47c-1.83,0.72-3.75,1.22-5.6,1.88
			c-0.51,0.18-1.28,0.65-1.31,1.03c-0.19,2.87-0.49,5.78-0.25,8.63c0.31,3.69,3.26,4.73,6.17,2.35c0.64-0.53,1.09-1.29,1.71-1.85
			c0.22-0.2,0.69-0.25,1-0.18c0.18,0.05,0.36,0.48,0.37,0.74c0.04,2.65-5.21,7.6-7.75,7.36c-1.62-0.15-2.7-0.91-3.11-2.53
			C14.48,62.41,14.02,60.58,13.77,59.59z"/>
	</g>
	<g id="Layer_47" class="st0">
		<path class="st1" d="M25.25,52.28c-2.07,2.71-3.77,5.04-5.59,7.28c-1.24,1.53-2.54,3.05-4,4.37c-1.76,1.6-3.64,0.94-4.25-1.36
			c-1.34-5.02-0.61-10.01,0.3-15c0.14-0.75,0.19-1.55,0.51-2.21c0.26-0.51,0.88-0.84,1.34-1.25c0.14,0.57,0.46,1.16,0.38,1.69
			c-0.64,4.2-0.92,8.39-0.16,12.59c0.33,1.83,0.73,2.05,2.13,0.78c3.49-3.16,6.52-6.66,8.12-11.25c0.62-1.78,1.61-3.48,2.7-5.04
			c0.83-1.19,1.62-0.93,2.03,0.5c0.14,0.51,0.19,1.07,0.16,1.59c-0.24,4.44-0.5,8.88-0.78,13.32c-0.05,0.83-0.08,1.76-0.47,2.44
			c-0.32,0.55-1.16,0.8-1.77,1.19c-0.32-0.55-0.89-1.09-0.9-1.64c-0.02-2.07,0.16-4.13,0.25-6.2
			C25.27,53.66,25.25,53.23,25.25,52.28z"/>
	</g>
	<g id="Layer_48" class="st0">
		<path class="st1" d="M19.69,56.62c1.53-3.63,3.02-7.27,4.6-10.88c1.12-2.56,2.26-5.12,3.56-7.6c0.35-0.67,1.28-1.03,1.94-1.54
			c0.03,0.9,0.35,1.93,0.03,2.68c-1.74,4.08-3.67,8.07-5.48,12.12c-1.51,3.38-2.92,6.8-4.48,10.16c-0.31,0.67-1.09,1.12-1.66,1.67
			c-0.39-0.63-1-1.21-1.15-1.9c-1.23-5.44-2.34-10.91-3.56-16.36c-0.21-0.93-0.82-1.77-1.08-2.7c-0.18-0.68-0.23-1.47-0.05-2.14
			c0.12-0.46,0.81-1.16,1.11-1.1c0.51,0.1,1.18,0.64,1.34,1.13c0.81,2.49,1.53,5.02,2.2,7.56c0.77,2.94,1.44,5.91,2.16,8.87
			C19.34,56.6,19.51,56.61,19.69,56.62z"/>
	</g>
	<g id="Layer_49" class="st0">
		<path class="st1" d="M33.13,43.67c0.06,5.47-1.22,10.51-4.83,14.77c-0.52,0.61-1.22,1.08-1.86,1.57c-1.08,0.83-1.86,0.43-2.72-0.5
			c-1.75-1.89-1.67-4.35-2.27-6.59c-0.15-0.55-0.17-1.14-0.35-1.68c-0.12-0.34-0.47-0.89-0.65-0.87c-0.4,0.06-0.89,0.33-1.12,0.67
			c-2.25,3.3-4.45,6.64-6.69,9.95c-0.41,0.6-0.84,1.24-1.41,1.67c-0.99,0.74-1.98,0.43-2.36-0.68c-0.39-1.13-0.72-2.39-0.62-3.55
			c0.56-6.63,1.65-13.17,3.99-19.44c0.2-0.53,0.39-1.11,0.74-1.53c0.24-0.29,0.77-0.36,1.16-0.52c0.14,0.35,0.37,0.69,0.41,1.05
			c0.03,0.3-0.2,0.61-0.26,0.93c-1.04,5.2-2.08,10.41-3.12,15.61c-0.16,0.79-0.5,1.58-0.5,2.37c0,0.64,0.38,1.28,0.59,1.92
			c0.65-0.25,1.49-0.32,1.93-0.77c0.96-1,1.89-2.1,2.52-3.31c1.63-3.11,3.1-6.31,4.63-9.47c0.18-0.36,0.21-0.82,0.46-1.12
			c0.34-0.41,0.81-0.7,1.22-1.04c0.32,0.42,0.85,0.82,0.92,1.28c0.23,1.61,0.23,3.26,0.45,4.88c0.27,1.99,0.54,4,1.04,5.94
			c0.54,2.05,2.45,2.56,3.72,0.93c1.09-1.39,2.29-3.07,2.45-4.72c0.34-3.38,0.02-6.82-0.03-10.24c0-0.08-0.08-0.17-0.06-0.23
			c0.36-1.2,0.73-2.39,1.1-3.59c1.56,0.58,1.12,1.99,1.29,3.13C33.03,41.53,33.05,42.61,33.13,43.67z"/>
	</g>
	<g id="Layer_50" class="st0">
		<path class="st1" d="M14.16,40.23c3.21,0.61,3.76,4.22,6.23,5.67c2.17-2.81,4.34-5.7,6.61-8.5c0.39-0.48,1.21-0.62,1.84-0.91
			c0.11,0.77,0.57,1.71,0.27,2.26c-0.63,1.18-1.68,2.13-2.5,3.22c-1.29,1.7-2.48,3.47-3.8,5.14c-0.9,1.14-0.43,1.96,0.39,2.8
			c1.9,1.92,3.88,3.77,5.65,5.8c1.34,1.54,1.71,3.47,0.92,5.42c-0.23,0.57-0.88,1.28-1.4,1.33c-0.48,0.04-1.43-0.65-1.49-1.11
			c-0.54-3.8-3.87-5.86-5.47-8.99c-0.69-1.34-1.48-1.22-2.27,0.18c-1.78,3.13-3.51,6.29-5.26,9.44c-0.19,0.33-0.34,0.77-0.63,0.95
			c-0.48,0.29-1.07,0.41-1.61,0.6c-0.16-0.47-0.58-1.02-0.45-1.39c0.66-1.86,1.28-3.79,2.26-5.48c1.23-2.12,2.76-4.07,4.23-6.05
			c0.7-0.95,0.96-1.61,0.16-2.79c-1.57-2.28-2.81-4.79-4.19-7.2C13.82,40.48,13.99,40.35,14.16,40.23z"/>
	</g>
	<g id="Layer_51" class="st0">
		<path class="st1" d="M23.05,50.64c-1.65,1.52-3.57,3.39-5.61,5.12c-0.73,0.61-1.71,1-2.65,1.27c-1.39,0.41-2.4-0.14-2.8-1.6
			c-1.23-4.39-0.69-8.68,0.84-12.87c0.25-0.68,0.97-1.2,1.47-1.79c0.16,0.09,0.32,0.19,0.47,0.28c-0.14,0.55-0.35,1.1-0.39,1.66
			c-0.2,2.81-0.55,5.64-0.46,8.45c0.06,2.05,1.52,2.6,3.19,1.33c2.45-1.87,4.56-4.06,5.86-6.96c0.91-2.03,1.96-4,3.1-5.91
			c0.37-0.63,1.21-0.97,1.84-1.44c0.13,0.84,0.55,1.75,0.35,2.5c-1.56,5.78-3.42,11.48-4.85,17.3c-1.86,7.6-3.39,15.29-5.11,22.92
			c-0.21,0.94-0.67,1.85-1.16,2.69c-0.17,0.29-0.86,0.51-1.18,0.39c-0.29-0.11-0.57-0.74-0.54-1.1c0.13-1.3,0.31-2.6,0.62-3.87
			C18.39,69.39,20.78,59.79,23.05,50.64z"/>
	</g>
	<g id="Layer_52" class="st0">
		<path class="st1" d="M21.65,60.31c-2.47,0.71-4.93,1.49-7.43,2.11c-1.37,0.34-2.8,0.51-4.22,0.57C9.68,63,9.11,62.24,9.03,61.77
			c-0.28-1.69,0.65-2.97,1.8-4.03c3.1-2.85,6.26-5.62,9.35-8.46c1.57-1.45,3.07-2.96,4.54-4.52c0.3-0.32,0.27-0.95,0.4-1.44
			c-0.43-0.07-0.89-0.27-1.28-0.18c-2.9,0.66-5.79,1.42-8.7,2.04c-0.56,0.12-1.22-0.18-1.83-0.29c0.35-0.45,0.61-1.18,1.05-1.32
			c3.41-1.09,6.84-2.12,10.29-3.04c1.47-0.39,3.02-0.44,4.52-0.7c1.45-0.25,1.66,0.53,1.26,1.59c-0.26,0.69-0.71,1.38-1.25,1.86
			c-4.89,4.39-9.85,8.71-14.73,13.11c-0.49,0.44-0.62,1.28-0.92,1.94c0.7,0.25,1.45,0.81,2.1,0.71c2.53-0.41,5.04-1,7.55-1.57
			c1.72-0.39,3.4-0.96,5.13-1.22c0.59-0.09,1.28,0.54,1.92,0.84c-0.34,0.55-0.56,1.44-1.04,1.6c-2.43,0.84-4.93,1.49-7.4,2.21
			C21.75,60.7,21.7,60.51,21.65,60.31z"/>
	</g>
</g>
<g id="Numbers">
	<path class="st0" d="M7.95,55.86c-0.8,1.25-1.5,2.44-2.3,3.56c-0.26,0.36-0.78,0.54-1.18,0.81c-0.13-0.52-0.5-1.12-0.36-1.54
		c0.64-1.87,1.28-3.77,2.22-5.5c0.9-1.65,1.54-3.22,1.6-5.17C8.1,42.4,9.33,36.92,11.1,31.59c1.44-4.35,2.85-8.76,4.8-12.88
		c1.25-2.63,3.44-4.83,5.29-7.16c0.81-1.02,1.91-1.02,3.15-0.59c2.11,0.72,4.2,1.4,5.46,3.44c0.66,1.08,1.28,0.82,1.93-0.02
		c0.61-0.79,1.17-1.65,1.92-2.3c0.33-0.29,1.12-0.31,1.56-0.11c0.25,0.11,0.43,1.02,0.25,1.34c-0.63,1.13-1.32,2.29-2.21,3.21
		c-0.98,1.01-1.12,1.94-0.89,3.3c0.67,4,1.28,8.03,1.58,12.07c0.37,4.91-0.7,9.61-2.89,14.06c-1.89,3.85-3.08,8.1-6.1,11.31
		c-2.04,2.17-4.18,4.32-6.58,6.06c-2.62,1.91-5.59,1.08-7.31-1.71C9.92,59.79,9.01,57.85,7.95,55.86z M29.16,22.4
		c-1.95,2.75-3.66,5.02-5.22,7.39c-3.85,5.82-7.59,11.71-11.46,17.52c-2.69,4.04-1.49,9.62,2.72,12.12
		c0.93,0.55,1.73,0.61,2.78,0.07c3.06-1.59,5.19-4.12,6.92-6.93c3.68-5.95,6.37-12.32,6.25-19.48C31.07,29.61,30.7,26.11,29.16,22.4
		z M10.4,45.21c0.17,0.06,0.34,0.11,0.51,0.17c0.21-0.29,0.42-0.58,0.62-0.87c2.62-3.95,5.26-7.89,7.85-11.87
		c2.63-4.04,5.2-8.13,7.83-12.17c0.84-1.29,0.83-2.25-0.66-2.99c-0.4-0.2-0.73-0.54-1.1-0.8c-3.14-2.19-5.05-1.76-6.89,1.56
		c-0.07,0.13-0.17,0.26-0.22,0.4c-1.95,5.3-4.1,10.54-5.78,15.92C11.48,38.01,11.1,41.66,10.4,45.21z"/>
	<g id="Layer_54" class="st0">
		<path class="st1" d="M23.23,21.45c-2.14,2.49-4.23,5.01-6.44,7.44c-0.76,0.83-1.76,1.46-2.74,2.04c-0.32,0.19-1.08,0.06-1.34-0.21
			c-0.22-0.22-0.12-0.91,0.04-1.31c0.18-0.45,0.52-0.91,0.91-1.19c3.46-2.52,5.46-6.24,7.85-9.63c0.76-1.08,1.03-2.51,1.57-3.75
			c0.48-1.11,0.96-2.23,1.59-3.26c0.25-0.4,1.23-0.86,1.35-0.74c0.47,0.45,1,1.12,1.01,1.72c0.02,2.01-0.14,4.02-0.31,6.02
			c-0.55,6.66-1.11,13.32-1.72,19.97c-0.47,5.08-1.03,10.15-1.51,15.23c-0.14,1.5,0.05,3.05-0.23,4.52
			c-0.33,1.73-0.91,3.43-1.61,5.05c-0.2,0.46-1.16,0.59-1.77,0.87c-0.2-0.57-0.6-1.16-0.55-1.7c0.12-1.35,0.54-2.68,0.67-4.03
			c1.07-10.44,2.1-20.88,3.14-31.32c0.19-1.91,0.32-3.83,0.48-5.74C23.49,21.43,23.36,21.44,23.23,21.45z"/>
	</g>
	<g id="Layer_55" class="st0">
		<path class="st1" d="M11.72,58.55c3.76-0.7,7.45-1.35,11.11-2.1c1.08-0.22,2.08-0.86,3.16-1.06c2.39-0.46,4.8-0.82,7.22-1.13
			c1.62-0.2,2.77,1.33,1.87,2.59c-0.63,0.88-1.77,1.69-2.81,1.91c-4.3,0.89-8.69,1.38-12.97,2.34c-3.41,0.76-6.69,2.05-10.07,2.94
			c-0.87,0.23-2.19,0.21-2.75-0.31c-0.51-0.48-0.65-1.96-0.28-2.65c0.97-1.84,2.21-3.56,3.51-5.2c4.4-5.57,8.81-11.16,11.89-17.59
			c2.73-5.71,5.41-11.48,5.5-18.05c0.06-4.08-1.11-4.88-4.98-5.18c-3.45-0.27-6.2,1.39-8.41,3.71c-2.55,2.68-2.47,6.37-0.34,9.87
			c0.42,0.7,0.52,1.6,0.77,2.41c-0.78-0.42-1.79-0.66-2.3-1.29c-3.5-4.37-3.21-8.59,0.35-13.2c2.37-3.08,5.75-4.89,9.54-5.59
			c1.61-0.3,3.47-0.06,5.05,0.45c2.64,0.87,3.67,2.85,3.58,5.77c-0.14,5.01-1.67,9.61-3.2,14.28c-2.24,6.84-5.95,12.84-9.98,18.71
			C15.28,52.9,13.55,55.72,11.72,58.55z"/>
	</g>
	<g id="Layer_56" class="st0">
		<path class="st1" d="M24.42,30.95c0.99,0.45,1.76,1.02,2.6,1.15c2.7,0.41,4.55,2.34,5.57,4.33c1.44,2.8,2.21,6.09,1.28,9.37
			c-2.24,7.88-6.76,13.84-14.48,17.12c-3.65,1.55-7.36,1.41-10.9-0.01C7.2,62.4,6.22,60.83,5.4,59.55
			c-0.28-0.45,0.34-1.47,0.54-2.23c0.67,0.19,1.45,0.22,2,0.59c2.28,1.53,4.86,2.15,7.48,1.98c8.03-0.54,14.44-6.92,15.56-14.52
			c0.44-2.99-0.7-5.3-2.97-7.71c-2.39-2.55-5.29-2.61-8.03-3.58c-1.58-0.56-1.77-1.61-1.06-2.61c0.9-1.25,2.1-2.4,3.41-3.22
			c3.19-2,6.36-3.89,8.11-7.5c0.87-1.79-0.11-3.09-0.49-4.59c-0.03-0.11-0.21-0.2-0.34-0.27c-2.9-1.56-9.48-0.7-12.29,1.66
			c-0.49,0.41-0.79,1.07-1.17,1.61c0.58,0.35,1.16,0.69,1.72,1.06c0.43,0.29,0.83,0.63,1.25,0.94c-0.47,0.31-0.9,0.75-1.41,0.92
			c-1.41,0.47-2.78,0.33-3.77-0.9c-1.05-1.3-0.65-2.66,0.22-3.82c2.39-3.19,5.69-5.01,9.48-6.07c3.67-1.02,6.64,0.67,9.4,2.63
			c1.3,0.92,1.33,2.65,0.95,4.25c-1.03,4.35-3.24,7.91-6.91,10.53C26.18,29.34,25.38,30.13,24.42,30.95z"/>
	</g>
	<g id="Layer_57" class="st0">
		<path class="st1" d="M23.89,31.47c0.33-5.98,0.64-11.96,1.03-17.93c0.06-0.96,0.43-1.94,0.84-2.82c0.25-0.54,0.86-0.91,1.3-1.35
			c0.28,0.61,0.77,1.21,0.79,1.83c0.06,2.07-0.01,4.15-0.11,6.22c-0.37,7.68-0.74,15.36-1.17,23.03c-0.08,1.4,0.31,1.52,1.57,1.13
			c1.54-0.47,3.17-0.66,4.77-0.89c0.22-0.03,0.6,0.4,0.75,0.69c0.84,1.63-0.77,4.43-2.6,4.54c-0.14,0.01-0.29-0.1-0.44-0.1
			C26.96,45.8,26.3,46.38,26.2,50c-0.08,2.85,0.01,5.7-0.09,8.54c-0.08,2.14-0.33,4.28-0.54,6.42c-0.04,0.45-0.14,1.01-0.43,1.29
			c-0.51,0.49-1.19,1.08-1.81,1.09c-0.4,0.01-1.13-0.9-1.18-1.45c-0.14-1.44-0.02-2.9,0.07-4.35c0.26-4.21,0.54-8.41,0.84-12.61
			c0.11-1.55-0.76-1.66-1.88-1.33c-2.12,0.61-4.2,1.37-6.34,1.9c-1.74,0.43-3.52,0.75-5.31,0.86c-1.6,0.09-2.06-1.23-2.07-2.52
			c-0.01-1.22,0.24-2.45,0.44-3.66c1.24-7.27,2.56-14.52,3.73-21.8c0.39-2.42,0.42-4.9,0.63-7.34c0.05-0.54,0.01-1.15,0.26-1.58
			c0.45-0.77,1.09-2.02,1.64-2.02c1.37,0.01,1.18,1.31,1.05,2.31c-1.1,8.76-2.21,17.53-3.32,26.29c-0.14,1.07-0.34,2.13-0.53,3.19
			c-0.23,1.3,0.61,2.06,1.95,1.8c2.81-0.55,5.62-1.05,8.43-1.58c1.13-0.21,1.7-0.88,1.76-2.06c0.17-3.3,0.39-6.59,0.59-9.88
			C24.02,31.48,23.95,31.48,23.89,31.47z"/>
	</g>
	<g id="Layer_58" class="st0">
		<path class="st1" d="M36.13,35.75c0.3,4.69-1.84,8.04-4.37,11.32c-3.27,4.24-6.77,8.17-11.62,10.66
			c-4.34,2.24-8.64,4.65-13.56,5.34c-1.39,0.2-3.42,0.2-4.21-0.62c-1.34-1.39-1.16-3.54-0.24-5.37c0.22-0.44,0.7-0.75,1.06-1.12
			c0.24,0.36,0.49,0.72,0.73,1.08c0.87,1.32,2.62,1.83,4.72,1.24c4.65-1.3,9.37-2.78,13.15-5.75c3.81-3,7.63-6.21,9.98-10.7
			c1.83-3.5,0.73-6.42-1.98-9.14c-3.13-3.14-6.99-3.33-10.77-3.89c-2.25-0.34-4.65,0.17-6.97,0.37c-2.25,0.19-3.16-0.56-2.53-2.6
			c1.54-4.98,3.48-9.8,8.6-12.22c3.31-1.56,6.7-3,10.56-2.22c1.81,0.36,3.75,0.18,5.48,0.73c1.42,0.45,2.67,1.55,3.88,2.5
			c0.27,0.21,0.11,0.99,0.15,1.51c-0.48-0.05-1.08,0.08-1.42-0.16c-2.06-1.52-4.3-1.76-6.75-1.29c-2.81,0.54-5.7,0.73-8.44,1.5
			c-2.87,0.81-5.57,2.18-6.86,5.2c-0.19,0.44-0.35,1.19-0.13,1.43c0.28,0.31,0.99,0.37,1.48,0.31c4.69-0.6,9.12-0.42,13.14,2.66
			c1.44,1.1,3.02,1.94,4.41,3.23C35.59,31.59,36.44,33.51,36.13,35.75z"/>
	</g>
	<g id="Layer_59" class="st0">
		<path class="st1" d="M21.46,13.46C13.7,25.7,7.21,38.42,6.76,53.43c3.54-5.07,7.84-9.11,13.61-11.51
			c2.81-1.17,5.53-2.59,8.26-3.94c4.05-2,9.32,2.31,8.66,6.03c-0.36,2-0.91,4.09-1.9,5.84c-1.62,2.84-3.38,5.7-5.59,8.09
			c-4.53,4.9-10.37,7.5-17,8.22c-3.36,0.37-5.35-1.93-7.22-4.14c-2.46-2.91-1.97-6.51-1.68-9.9c0.76-9,3.98-17.27,7.68-25.42
			c1.94-4.28,3.81-8.56,6.72-12.28c0.8-1.02,1.65-2.03,2.59-2.92c0.96-0.92,1.99-0.91,2.6,0.42c0.51,1.11,0.93,2.28,1.25,3.45
			c0.08,0.28-0.37,0.77-0.68,1.04c-0.08,0.07-0.68-0.26-0.84-0.53c-0.42-0.72-0.74-1.51-1.09-2.27
			C21.9,13.57,21.68,13.51,21.46,13.46z M28.93,42.85c-0.68,0.09-1.22,0.13-1.75,0.23c-4.3,0.83-7.94,2.97-11.57,5.34
			c-3.33,2.17-5.45,5.05-7.02,8.55c-0.4,0.9-0.56,1.57,0.31,2.2c2.28,1.64,4.8,2.77,7.64,2.18c7.06-1.46,12.28-5.55,15.88-11.73
			c0.53-0.91,0.91-1.97,1.12-3.01c0.36-1.81-0.44-2.93-2.25-3.36C30.47,43.06,29.63,42.97,28.93,42.85z"/>
	</g>
	<g id="Layer_60" class="st0">
		<path class="st1" d="M17.33,43.91c-1.92,0.19-3.47,0.43-5.01,0.48c-2.19,0.08-4.39,0.08-6.58-0.01c-0.73-0.03-1.94-0.31-2.05-0.72
			c-0.23-0.83-0.1-1.96,0.33-2.72C4.33,40.4,5.51,39.82,6.03,40c4.18,1.46,8.27-0.61,12.41-0.21c0.46,0.04,1.18-0.77,1.5-1.34
			c2.21-4.06,4.29-8.19,6.52-12.23c1.73-3.12,3.62-6.15,5.42-9.24c0.21-0.35,0.28-0.79,0.41-1.18c-0.42-0.1-0.84-0.31-1.25-0.29
			c-3.86,0.2-7.73,0.25-11.56,0.71c-4.56,0.55-9.08,1.47-13.63,2.17c-0.73,0.11-1.51-0.09-2.27-0.15c0.11-0.78,0.08-1.63,0.38-2.33
			c0.53-1.23,1.51-1.92,2.95-2.04c2.51-0.19,5.01-0.58,7.52-0.81c5.89-0.53,11.79-0.96,17.67-1.56c1.2-0.12,2.48-0.59,3.5-1.25
			c1.32-0.85,2.03-0.17,2.02,0.84C37.62,12.41,37.37,14,36.6,15c-5.08,6.6-8.92,13.94-12.94,21.17c-0.46,0.83-0.75,1.76-1.12,2.64
			c1.05,0.13,2.1,0.27,3.16,0.38c0.8,0.08,1.65-0.03,2.38,0.22c0.47,0.17,1.05,0.81,1.1,1.29c0.16,1.52-1.12,2.71-2.78,2.77
			c-1.89,0.07-3.8-0.01-5.67,0.23c-0.51,0.06-1.11,0.96-1.31,1.59c-1.48,4.6-2.87,9.23-4.29,13.85c-0.52,1.71-0.9,3.48-1.64,5.09
			c-0.32,0.71-1.37,1.09-2.09,1.61c-0.16-0.82-0.58-1.69-0.44-2.45c1.13-6.11,3.05-11.98,5.62-17.64
			C16.8,45.28,16.97,44.79,17.33,43.91z"/>
	</g>
	<g id="Layer_61" class="st0">
		<path class="st1" d="M9.33,56.42c0.72-2.48,1.59-6.33,2.99-9.98c1.48-3.85,3.41-7.54,5.26-11.24c0.63-1.27,0.24-1.91-0.77-2.61
			c-3.49-2.4-6.31-5.4-8.12-9.28c-1.21-2.6-0.56-5.8,1.88-7.32c2.41-1.5,4.98-2.85,7.63-3.85c2.11-0.8,4.47-0.92,6.7-1.42
			c2.9-0.65,6.91,2.7,7.1,5.88c0.18,3.02-1.31,4.89-2.85,6.93c-2.24,2.96-4.56,5.86-6.83,8.81c-0.38,0.49-0.69,0.65,0.31,1.26
			c1.59,0.97,2.74,2.69,4.02,4.14c3.5,3.94,4.71,8.4,3.3,13.6c-1,3.67-2.53,6.91-5.21,9.71c-1.69,1.76-3.82,2.36-5.89,3.01
			c-1.49,0.46-3.31,0.4-4.86,0.04C10.24,63.2,9.28,61.71,9.33,56.42z M19.96,35.34c-1.16,2.15-2.34,4.2-3.4,6.31
			c-2.37,4.68-3.91,9.63-4.39,14.87c-0.07,0.82,0.22,1.94,0.77,2.49c1.4,1.4,3.33,1.84,5.24,1.77c3.46-0.12,5.85-2.13,7.53-4.95
			c4.01-6.73,1.98-12.63-3.21-17.82C21.74,37.25,21.02,36.46,19.96,35.34z M24.52,13.97c-3.99,0.21-7.55,1.6-11.07,3.16
			c-3.09,1.37-3.47,2.48-1.38,5.23c2.05,2.7,4.33,5.24,6.59,7.77c1.04,1.16,1.72,1.05,2.67-0.19c2.29-3.01,4.57-6.03,6.84-9.05
			c0.55-0.73,1.14-1.44,1.58-2.24c1-1.83,0.8-2.94-1.03-3.8C27.45,14.26,25.92,14.24,24.52,13.97z"/>
	</g>
	<g id="Layer_62" class="st0">
		<path class="st1" d="M31.45,26.45c-4.55,5.5-10.03,9.23-16.26,12c-0.9,0.4-1.75,0.95-2.68,1.27c-2.72,0.93-5.15-0.05-7.38-1.48
			c-1.39-0.89-1.72-4.79-1.11-6.91c2.27-7.99,8.02-12.85,14.83-16.81c0.79-0.46,1.55-0.99,2.32-1.49c0.45-0.29,0.86-0.66,1.35-0.87
			c4.27-1.8,6.01-2.21,8.83,2.06c0.38,0.58,0.75,1.17,1.03,1.8c0.36,0.82,0.64,1.28,1.62,0.56c1.33-0.97,1.84,0.03,1.89,1.16
			c0.05,1.06-0.11,2.15-0.31,3.21c-1.19,6.34-2.49,12.66-3.61,19.01c-1.42,8.02-2.69,16.06-4.1,24.08
			c-0.23,1.33-0.79,2.62-1.36,3.85c-0.16,0.35-0.96,0.66-1.34,0.56c-0.36-0.1-0.77-0.77-0.78-1.2c-0.02-1.22,0.04-2.47,0.27-3.67
			c1.29-6.64,2.71-13.26,3.94-19.91C29.64,37.94,30.5,32.19,31.45,26.45z M7.01,30.96c0.04,2.8,1.85,4.29,4.01,4.24
			c2.99-0.07,5.31-1.75,7.82-3c4.86-2.41,8.55-6.12,11.58-10.55c0.72-1.05,0.93-2.09,0.28-3.22c-1.21-2.12-4-3.24-6.41-2.47
			c-6.09,1.94-11.27,5.29-15.16,10.37C8.01,27.81,7.54,29.78,7.01,30.96z"/>
	</g>
</g>
</svg>
